<?xml version="1.0" encoding="utf-8"?>
<!-- Generator: Adobe Illustrator 25.0.0, SVG Export Plug-In . SVG Version: 6.00 Build 0)  -->
<svg version="1.1" id="图层_1" xmlns="http://www.w3.org/2000/svg" xmlns:xlink="http://www.w3.org/1999/xlink" x="0px" y="0px"
	 viewBox="0 0 128 128" style="enable-background:new 0 0 128 128;" xml:space="preserve">
<style type="text/css">
	.st0{fill:#001D26;}
	.st1{fill:#00C8FF;}
</style>
<g>
	<path class="st0" d="M0,0h128v128H0V0z"/>
	<path class="st1" d="M86.3,52.5c-1.6-0.2-3.2,0.3-4.4,1.3c-1.5,1.4-1.6,3.8-0.2,5.3c0.1,0.1,0.1,0.1,0.2,0.2
		c1.6,1.5,3.5,2.7,5.5,3.7c3.3,1.4,6.3,3.6,8.7,6.3c1.5,2.2,2.3,4.9,2.2,7.5c0.2,3.8-1.4,7.5-4.3,9.9c-3.2,2.4-7,3.6-11,3.4
		c-2.1,0.1-4.3-0.1-6.3-0.6c-1.6-0.3-3.1-0.9-4.6-1.7c-0.1-0.1-0.3-0.2-0.4-0.3c-0.1-0.2-0.1-0.4-0.1-0.6v-8c0-0.2,0.1-0.4,0.2-0.5
		c0.2-0.1,0.4-0.1,0.5,0c1.6,1.1,3.4,2,5.2,2.5c1.8,0.5,3.6,0.7,5.5,0.7c1.6,0.1,3.2-0.3,4.6-1.2c0.9-0.8,1.4-1.9,1.4-3.1
		c-0.1-1.1-0.5-2.1-1.3-2.9c-1.6-1.5-3.4-2.7-5.3-3.7c-3.1-1.4-5.9-3.4-8.2-6C70.4,59.7,71,52.5,75.5,48c2.9-2.7,6.8-4.1,10.8-3.8
		c2,0,3.9,0.1,5.9,0.4c1.3,0.2,2.6,0.5,3.8,1.1c0.2,0.2,0.3,0.4,0.4,0.6c0.1,0.2,0.1,0.4,0.1,0.6v7.5c0,0.2-0.1,0.3-0.2,0.4
		c-0.1,0.1-0.3,0.1-0.7,0c-1.3-0.8-2.7-1.5-4.2-1.8c-1.7-0.4-3.4-0.6-5.1-0.6 M40.4,59c0.6,0,1.3,0.1,1.8,0.1h2.5
		c2.9,0,5.8-0.7,8.3-2.2c2.5-1.4,3.7-4.4,3.7-8.7c0.2-2.9-0.9-5.8-3-7.9c-2.4-1.9-5.3-2.8-8.3-2.6h-5.1V59 M31,30
		c0-0.2,0.1-0.3,0.4-0.4c0.2-0.1,0.5-0.2,0.8-0.2l6.2-0.1h7.5c7.3,0,12.7,1.8,15.8,5.5c3.2,3.7,4.9,8.5,4.8,13.4
		c0,7-2.1,12.1-6.4,15.2c-4.5,3.2-10,4.8-15.5,4.7h-4.1v20.7c0,0.2,0,0.4-0.1,0.5c-0.1,0.1-0.3,0.1-0.5,0.1h-8.3
		c-0.2,0-0.4,0-0.5-0.1C31,89.1,31,88.9,31,88.8L31,30 M5.4,5.5h117.4v117H5.4V5.5 M0,0v128h128V0H0"/>
</g>
</svg>
