<?xml version="1.0" encoding="utf-8"?>
<!-- Generator: Adobe Illustrator 25.0.0, SVG Export Plug-In . SVG Version: 6.00 Build 0)  -->
<svg version="1.1" id="图层_1" xmlns="http://www.w3.org/2000/svg" xmlns:xlink="http://www.w3.org/1999/xlink" x="0px" y="0px"
	 viewBox="0 0 128 128" style="enable-background:new 0 0 128 128;" xml:space="preserve">
<style type="text/css">
	.st0{fill:#261300;}
	.st1{fill:#FF7C00;}
</style>
<g>
	<path class="st0" d="M24,24h80v80H24V24z"/>
	<path class="st1" d="M76.4,52.6c0-0.1,0-0.2,0.1-0.3c0.1-0.1,0.2-0.1,0.3-0.1h5.2c0.1,0,0.2,0,0.3,0.1c0.1,0.1,0.1,0.2,0.1,0.3
		v26.9c0,0.1,0,0.2-0.1,0.3c-0.1,0.1-0.2,0.1-0.3,0.1h-5.2c-0.1,0-0.2-0.1-0.3-0.1s-0.1-0.2-0.1-0.2V52.6 M76.1,44.8
		c-0.1-1,0.3-1.9,1-2.6c0.7-0.6,1.6-0.9,2.4-0.9c0.9-0.1,1.8,0.3,2.5,0.9c0.7,0.7,1,1.6,0.9,2.6c0.1,0.9-0.3,1.9-1,2.6
		c-0.7,0.6-1.6,0.9-2.5,0.9c-1.8,0.1-3.2-1.2-3.4-3C76,45.1,76,45,76.1,44.8 M61,63.8c-0.4-1.9-1.1-4.6-2-8s-1.5-6.1-1.9-8.1
		c-0.3,2-0.9,4.5-1.7,7.6s-1.5,5.9-2.2,8.6L61,63.8 M51.8,69.3l-2.6,10.3c0,0.1-0.1,0.2-0.2,0.2c-0.1,0-0.2,0-0.3,0h-4.9
		c-0.1,0-0.2,0-0.3-0.1c-0.1-0.1-0.1-0.2,0-0.4l9.4-34c0-0.3,0.1-0.6,0.2-1c0.1-0.6,0.1-1.2,0.1-1.9c0-0.1,0-0.2,0.1-0.2
		c0.1-0.1,0.1-0.1,0.3-0.1h6.9c0.1,0,0.2,0,0.3,0.1c0.1,0.1,0.1,0.1,0.1,0.2l10.7,36.9c0,0.1,0,0.2,0,0.2s-0.1,0.1-0.2,0.1h-5.5
		c-0.1,0-0.2,0-0.3,0s-0.1-0.1-0.1-0.2l-2.8-10.3L51.8,69.3 M27.4,27.4h73.4v73.1H27.4V27.4 M24,24v80h80V24H24"/>
</g>
</svg>
