<?xml version="1.0" encoding="utf-8"?>
<!-- Generator: Adobe Illustrator 25.0.0, SVG Export Plug-In . SVG Version: 6.00 Build 0)  -->
<svg version="1.1" id="图层_1" xmlns="http://www.w3.org/2000/svg" xmlns:xlink="http://www.w3.org/1999/xlink" x="0px" y="0px"
	 viewBox="0 0 128 128" style="enable-background:new 0 0 128 128;" xml:space="preserve">
<style type="text/css">
	.st0{fill:#0A2431;}
	.st1{fill:#ADD5EC;}
</style>
<g>
	<path class="st0" d="M24,24h80v80H24V24z"/>
	<path class="st1" d="M70.9,57.7v-1.1c0-0.5,0-1.2-0.1-2.3c0-0.1,0-0.1,0-0.2c0.1-0.1,0.1-0.1,0.2-0.2c1.6-0.6,3.2-1.2,4.9-1.6
		c2.4-0.6,4.9-0.9,7.4-0.9c0.1,0,0.2,0,0.3,0.1c0.1,0.1,0.1,0.2,0.1,0.3v4.9c0,0.2,0,0.2-0.1,0.2c-0.1,0-0.2,0-0.3,0
		c-1.2-0.1-2.3,0-3.5,0.1c-0.9,0.1-1.9,0.2-2.8,0.6v21.6c0,0.1,0,0.2-0.1,0.3c-0.1,0.1-0.2,0.1-0.2,0.1h-5.2c-0.1,0-0.2,0-0.3-0.1
		c-0.1,0-0.1-0.1-0.1-0.2V57.7 M46.2,79.8c-0.1,0-0.3,0-0.4-0.1c-0.1-0.1-0.1-0.2-0.1-0.4V42.6c0-0.1,0-0.2,0.1-0.3
		c0.1-0.1,0.2-0.1,0.2-0.1h5.3c0.2,0,0.2,0,0.2,0.1c0,0.1,0,0.2,0,0.3v31.6h13.9c0.1,0,0.2,0.1,0.2,0.1c0.1,0.1,0.1,0.2,0.1,0.3
		l-0.8,4.9c0,0.1-0.1,0.2-0.2,0.3c-0.1,0.1-0.2,0.1-0.3,0.1H46.2 M27.4,27.4h73.4v73.1H27.4V27.4 M24,24v80h80V24H24"/>
</g>
</svg>
