<?xml version="1.0" encoding="utf-8"?>
<!-- Generator: Adobe Illustrator 25.0.0, SVG Export Plug-In . SVG Version: 6.00 Build 0)  -->
<svg version="1.1" id="图层_1" xmlns="http://www.w3.org/2000/svg" xmlns:xlink="http://www.w3.org/1999/xlink" x="0px" y="0px"
	 viewBox="0 0 128 128" style="enable-background:new 0 0 128 128;" xml:space="preserve">
<style type="text/css">
	.st0{fill:#072600;}
	.st1{fill:#35FA00;}
</style>
<g>
	<path class="st0" d="M24,24h80v80H24V24z"/>
	<path class="st1" d="M82.8,79.9c-0.1,0-0.3-0.1-0.4-0.1c-0.1-0.1-0.1-0.2-0.1-0.3c-0.9-4.7-1.6-8.8-2.3-12.1
		c-0.6-3.4-1.1-6.2-1.4-8.6h-0.1c-0.3,2.1-0.9,4.9-1.6,8.3c-0.7,3.4-1.4,7.6-2.5,12.5c-0.1,0.1-0.1,0.2-0.2,0.3
		c-0.1,0.1-0.2,0.1-0.3,0.1h-5.4c-0.1,0-0.2,0-0.4,0s-0.2-0.1-0.2-0.3l-5.9-26.9c0-0.1,0-0.2,0.1-0.3c0-0.1,0.1-0.2,0.3-0.2h5.4
		c0.1,0,0.2,0,0.2,0.1c0.1,0.1,0.2,0.1,0.2,0.3c1,6.1,1.8,10.7,2.3,14c0.5,3.3,0.8,5.6,1,6.9h0.2c0.2-1.4,0.6-3.8,1.2-7.1
		c0.6-3.3,1.6-7.8,2.8-13.7c0-0.1,0.1-0.2,0.1-0.3c0,0,0.1-0.1,0.2-0.1h5.7c0.1,0,0.2,0.1,0.2,0.1c0,0.1,0.1,0.2,0.2,0.2
		c0.9,5.6,1.8,10.1,2.4,13.6s1,5.9,1.1,7.3h0.2c0.3-1.8,0.7-4.1,1.1-7.1c0.4-3,1.3-7.6,2.5-13.8c0-0.1,0-0.2,0.1-0.3
		c0.1-0.1,0.2-0.1,0.3-0.1h5.1c0.1,0,0.2,0,0.2,0.1c0.1,0,0.1,0.2,0,0.3l-6.5,27c0,0.1-0.1,0.2-0.1,0.3c-0.1,0.1-0.2,0.1-0.3,0.1
		L82.8,79.9 M40.4,74.6h2.8c2.9,0.1,5.8-1.2,7.7-3.4c2-2.3,3.1-5.7,3.1-10.6s-1-8-3.1-10.1c-2-1.9-4.7-3-7.5-2.9h-1.6
		c-0.5,0-0.9,0.1-1.4,0.1L40.4,74.6 M34.4,42.8c0-0.1,0-0.2,0.1-0.3c0.1-0.1,0.2-0.1,0.3-0.2c0.6,0,1.7,0,3.4-0.1s3.4-0.1,5.2-0.1
		c2.5-0.1,5,0.4,7.4,1.3c2,0.8,3.8,2.1,5.2,3.7c1.4,1.7,2.5,3.6,3.1,5.7c0.8,2.4,1.1,4.9,1.1,7.4c0.1,3.2-0.4,6.4-1.6,9.4
		c-0.9,2.2-2.3,4.3-4.1,6c-1.6,1.5-3.4,2.6-5.5,3.2c-1.9,0.6-3.8,0.9-5.8,1h-4.7c-1.7,0-2.9-0.1-3.7-0.1c-0.1,0-0.2-0.1-0.2-0.1
		c-0.1-0.1-0.1-0.2-0.1-0.3L34.4,42.8 M27.4,27.4h73.4v73.1H27.4V27.4 M24,24v80h80V24H24"/>
</g>
</svg>
