<?xml version="1.0" encoding="utf-8"?>
<!-- Generator: Adobe Illustrator 25.0.0, SVG Export Plug-In . SVG Version: 6.00 Build 0)  -->
<svg version="1.1" id="图层_1" xmlns="http://www.w3.org/2000/svg" xmlns:xlink="http://www.w3.org/1999/xlink" x="0px" y="0px"
	 viewBox="0 0 128 128" style="enable-background:new 0 0 128 128;" xml:space="preserve">
<style type="text/css">
	.st0{fill:#072600;}
	.st1{fill:#35FA00;}
</style>
<g>
	<path class="st0" d="M0,0h128v128H0V0z"/>
	<path class="st1" d="M94,89.4c-0.2,0-0.5-0.1-0.7-0.2c-0.1-0.2-0.2-0.3-0.2-0.5c-1.4-7.5-2.6-14-3.7-19.4c-1-5.5-1.8-10-2.3-13.8
		h-0.1c-0.5,3.3-1.4,7.8-2.5,13.3S82.2,81,80.5,88.8c-0.1,0.2-0.2,0.3-0.4,0.5c-0.1,0.1-0.3,0.1-0.5,0.1h-8.6c-0.2,0-0.4,0-0.6,0
		c-0.2,0-0.3-0.2-0.4-0.5l-9.4-43.1c0-0.2,0-0.3,0.1-0.5c0-0.2,0.2-0.3,0.5-0.3h8.6c0.2,0,0.3,0,0.4,0.1c0.1,0.1,0.3,0.2,0.3,0.4
		c1.6,9.7,2.8,17.1,3.7,22.4c0.8,5.3,1.3,8.9,1.6,11h0.4c0.3-2.3,1-6.1,1.9-11.3s2.5-12.5,4.5-21.9c0-0.2,0.1-0.3,0.2-0.5
		c0,0,0.2-0.1,0.4-0.1h9.1c0.1,0,0.3,0.1,0.4,0.2c0,0.1,0.2,0.3,0.3,0.4c1.5,8.9,2.8,16.2,3.8,21.8s1.6,9.5,1.8,11.7h0.3
		c0.5-2.8,1.1-6.6,1.8-11.4s2.1-12.1,4-22.1c0-0.2,0-0.3,0.1-0.5c0.1-0.1,0.3-0.1,0.5-0.1h8.1c0.2,0,0.3,0,0.4,0.1
		c0.1,0,0.2,0.3,0,0.5l-10.4,43.2c0,0.2-0.1,0.4-0.2,0.5c-0.1,0.1-0.3,0.1-0.5,0.1L94,89.4 M26.3,80.9h4.4C35.4,81,39.9,79,43,75.4
		c3.2-3.7,4.9-9.1,5-16.9s-1.6-12.8-4.9-16.1c-3.2-3.1-7.5-4.8-12-4.7h-2.5c-0.8,0-1.5,0.1-2.2,0.2V80.9 M16.7,30.1
		c0-0.2,0-0.4,0.1-0.5c0.2-0.1,0.3-0.2,0.5-0.3c1,0,2.7,0,5.4-0.1s5.4-0.1,8.4-0.1c4-0.1,8,0.6,11.8,2.1c3.2,1.3,6.1,3.3,8.4,5.9
		c2.3,2.7,4,5.8,5,9.1c1.2,3.8,1.8,7.9,1.7,11.9c0.2,5.2-0.7,10.3-2.6,15.1c-1.5,3.6-3.7,6.9-6.6,9.6c-2.5,2.4-5.5,4.1-8.8,5.2
		c-3,1-6.1,1.5-9.3,1.6h-7.5c-2.7,0-4.7-0.1-5.9-0.1c-0.1,0-0.3-0.1-0.4-0.2c-0.1-0.2-0.1-0.4-0.1-0.5L16.7,30.1 M5.4,5.5h117.4v117
		H5.4V5.5 M0,0v128h128V0H0"/>
</g>
</svg>
