<?xml version="1.0" encoding="utf-8"?>
<!-- Generator: Adobe Illustrator 25.0.0, SVG Export Plug-In . SVG Version: 6.00 Build 0)  -->
<svg version="1.1" id="图层_1" xmlns="http://www.w3.org/2000/svg" xmlns:xlink="http://www.w3.org/1999/xlink" x="0px" y="0px"
	 viewBox="0 0 128 128" style="enable-background:new 0 0 128 128;" xml:space="preserve">
<style type="text/css">
	.st0{fill:#261300;}
	.st1{fill:#FF7C00;}
</style>
<g>
	<path class="st0" d="M0,0h128v128H0V0z"/>
	<path class="st1" d="M83.9,45.7c0-0.2,0-0.3,0.1-0.5c0.1-0.1,0.3-0.1,0.5-0.1h8.4c0.2,0,0.4,0,0.5,0.1c0.1,0.2,0.1,0.3,0.1,0.5v43
		c0,0.2,0,0.3-0.1,0.5c-0.1,0.1-0.3,0.1-0.5,0.1h-8.3c-0.2,0-0.4-0.1-0.5-0.2c-0.1-0.1-0.2-0.3-0.2-0.4L83.9,45.7 M83.3,33.3
		c-0.1-1.6,0.5-3.1,1.6-4.2c1.1-1,2.5-1.5,3.9-1.4c1.5-0.1,2.9,0.5,4,1.5c1.1,1.1,1.6,2.6,1.5,4.1c0.1,1.5-0.5,3-1.6,4.1
		c-1.1,1-2.5,1.5-4,1.4c-2.8,0.2-5.2-2-5.4-4.8C83.2,33.8,83.2,33.6,83.3,33.3 M59.2,63.6c-0.7-3.1-1.8-7.3-3.2-12.8
		s-2.4-9.7-3.1-12.9c-0.5,3.2-1.5,7.2-2.7,12.1s-2.4,9.4-3.5,13.7L59.2,63.6 M44.4,72.5L40.2,89c0,0.2-0.1,0.3-0.3,0.4
		c-0.2,0-0.4,0-0.5,0h-7.8c-0.2,0-0.4,0-0.5-0.1c-0.1-0.2-0.1-0.4,0-0.6l15.1-54.4c0-0.5,0.2-1,0.3-1.6c0.2-1,0.2-2,0.2-3
		c0-0.1,0-0.3,0.1-0.4c0.1-0.1,0.2-0.1,0.4-0.1h11.1c0.2,0,0.3,0,0.5,0.1c0.1,0.1,0.1,0.2,0.1,0.4l17.1,59.1c0,0.1,0,0.3,0,0.4
		c0,0.1-0.2,0.2-0.4,0.2h-8.8c-0.2,0-0.4,0-0.5,0c-0.1,0-0.2-0.1-0.2-0.3l-4.5-16.5H44.4 M5.4,5.5h117.4v117H5.4V5.5 M0,0v128h128V0
		H0"/>
</g>
</svg>
