<?xml version="1.0" encoding="utf-8"?>
<!-- Generator: Adobe Illustrator 25.0.0, SVG Export Plug-In . SVG Version: 6.00 Build 0)  -->
<svg version="1.1" id="图层_1" xmlns="http://www.w3.org/2000/svg" xmlns:xlink="http://www.w3.org/1999/xlink" x="0px" y="0px"
	 viewBox="0 0 128 128" style="enable-background:new 0 0 128 128;" xml:space="preserve">
<style type="text/css">
	.st0{fill:#001D26;}
	.st1{fill:#00C8FF;}
</style>
<g>
	<path class="st0" d="M24,24h80v80H24V24z"/>
	<path class="st1" d="M77.9,56.8c-1-0.1-2,0.2-2.8,0.8c-0.9,0.9-1,2.4-0.1,3.3c0.1,0.1,0.1,0.1,0.1,0.1c1,0.9,2.2,1.7,3.4,2.3
		c2.1,0.9,3.9,2.2,5.4,3.9c0.9,1.4,1.4,3.1,1.4,4.7c0.1,2.4-0.9,4.7-2.7,6.2c-2,1.5-4.4,2.2-6.9,2.1c-1.3,0.1-2.7-0.1-3.9-0.4
		c-1-0.2-1.9-0.6-2.9-1.1c-0.1-0.1-0.2-0.1-0.2-0.2c-0.1-0.1-0.1-0.3-0.1-0.4v-5c0-0.1,0.1-0.2,0.1-0.3c0.1-0.1,0.2-0.1,0.3,0
		c1,0.7,2.1,1.2,3.2,1.6s2.2,0.4,3.4,0.4c1,0.1,2-0.2,2.9-0.7c0.6-0.5,0.9-1.2,0.9-1.9c-0.1-0.7-0.3-1.3-0.8-1.8
		c-1-0.9-2.1-1.7-3.3-2.3c-1.9-0.9-3.7-2.1-5.1-3.8c-2.4-3.1-2-7.6,0.8-10.4c1.8-1.7,4.2-2.6,6.8-2.4c1.2,0,2.4,0.1,3.7,0.2
		c0.8,0.1,1.6,0.3,2.4,0.7c0.1,0.1,0.2,0.2,0.2,0.4s0.1,0.2,0.1,0.4V58c0,0.1-0.1,0.2-0.1,0.2s-0.2,0.1-0.4,0
		c-0.8-0.5-1.7-0.9-2.6-1.1C80.1,56.9,79,56.8,77.9,56.8 M49.2,60.9c0.4,0,0.8,0.1,1.1,0.1h1.6c1.8,0,3.6-0.4,5.2-1.4
		c1.6-0.9,2.3-2.8,2.3-5.4c0.1-1.8-0.6-3.6-1.9-4.9c-1.5-1.2-3.3-1.8-5.2-1.6h-3.2L49.2,60.9 M43.4,42.8c0-0.1,0.1-0.2,0.2-0.2
		c0.1-0.1,0.3-0.1,0.5-0.1l3.9-0.1h4.7c4.6,0,7.9,1.1,9.9,3.4c2,2.3,3.1,5.3,3,8.4c0,4.4-1.3,7.6-4,9.5c-2.8,2-6.2,3-9.7,2.9h-2.6
		v12.9c0,0.1,0,0.2-0.1,0.3s-0.2,0.1-0.3,0.1h-5.2c-0.1,0-0.2,0-0.3-0.1c-0.1-0.1-0.1-0.2-0.1-0.3V42.8 M27.4,27.4h73.4v73.1H27.4
		V27.4 M24,24v80h80V24H24"/>
</g>
</svg>
