<?xml version="1.0" encoding="utf-8"?>
<!-- Generator: Adobe Illustrator 25.0.0, SVG Export Plug-In . SVG Version: 6.00 Build 0)  -->
<svg version="1.1" id="图层_1" xmlns="http://www.w3.org/2000/svg" xmlns:xlink="http://www.w3.org/1999/xlink" x="0px" y="0px"
	 viewBox="0 0 128 128" style="enable-background:new 0 0 128 128;" xml:space="preserve">
<style type="text/css">
	.st0{fill:#0A2431;}
	.st1{fill:#ADD5EC;}
</style>
<g>
	<path class="st0" d="M0,0h128v128H0V0z"/>
	<path class="st1" d="M75,53.9v-1.7c0-0.8,0-2-0.2-3.7c0-0.1,0-0.2,0-0.4c0.1-0.1,0.2-0.2,0.3-0.3c2.5-1,5.1-1.9,7.8-2.5
		c3.9-1,7.8-1.4,11.8-1.4c0.2,0,0.4,0,0.5,0.1c0.1,0.2,0.1,0.3,0.1,0.5v7.9c0,0.3,0,0.4-0.1,0.4c-0.2,0-0.3,0-0.5,0
		c-1.9-0.1-3.7,0-5.6,0.2c-1.5,0.1-3.1,0.4-4.5,0.9v34.6c0,0.2,0,0.4-0.2,0.5c-0.1,0.1-0.3,0.1-0.4,0.1h-8.4c-0.2,0-0.3,0-0.5-0.1
		C75,89,74.9,88.8,75,88.6L75,53.9 M35.5,89.3c-0.2,0-0.5,0-0.7-0.2c-0.1-0.2-0.2-0.4-0.2-0.6V29.8c0-0.2,0-0.3,0.1-0.5
		c0.1-0.1,0.3-0.2,0.4-0.2h8.5c0.3,0,0.4,0,0.4,0.1c0,0.2,0,0.3,0,0.5v50.6h22.2c0.1,0,0.3,0.1,0.4,0.2c0.1,0.1,0.1,0.3,0.1,0.4
		l-1.3,7.8c0,0.2-0.1,0.4-0.3,0.5c-0.2,0.1-0.4,0.1-0.5,0.1L35.5,89.3 M5.4,5.5h117.4v117H5.4V5.5 M0,0v128h128V0H0"/>
</g>
</svg>
