<?xml version="1.0" encoding="utf-8"?>
<!-- Generator: Adobe Illustrator 25.0.0, SVG Export Plug-In . SVG Version: 6.00 Build 0)  -->
<svg version="1.1" id="图层_1" xmlns="http://www.w3.org/2000/svg" xmlns:xlink="http://www.w3.org/1999/xlink" x="0px" y="0px"
	 viewBox="0 0 128 128" style="enable-background:new 0 0 128 128;" xml:space="preserve">
<style type="text/css">
	.st0{fill:#5B4282;}
</style>
<g>
	<path class="st0" d="M24,99.6h3.1c1.4,0,2.4,0.2,3,0.6c0.6,0.4,0.9,1,0.9,1.9c0,0.6-0.1,1.1-0.4,1.4c-0.3,0.4-0.6,0.6-1.1,0.7v0.1
		c0.6,0.1,1.1,0.4,1.3,0.8c0.3,0.4,0.4,0.9,0.4,1.5c0,0.9-0.3,1.6-1,2.1c-0.6,0.5-1.5,0.8-2.6,0.8H24C24,109.4,24,99.6,24,99.6z
		 M26.1,103.5h1.2c0.6,0,1-0.1,1.2-0.3c0.3-0.2,0.4-0.5,0.4-0.9c0-0.4-0.1-0.6-0.4-0.8c-0.3-0.2-0.7-0.2-1.3-0.2h-1.1
		C26.1,101.3,26.1,103.5,26.1,103.5z M26.1,105.2v2.6h1.4c0.6,0,1-0.1,1.3-0.3c0.3-0.2,0.4-0.6,0.4-1c0-0.8-0.6-1.2-1.7-1.2
		C27.4,105.2,26.1,105.2,26.1,105.2z M42.2,104.5c0,1.6-0.4,2.9-1.2,3.7s-2,1.3-3.5,1.3s-2.7-0.4-3.5-1.3c-0.8-0.9-1.2-2.1-1.2-3.8
		s0.4-2.9,1.2-3.7c0.8-0.9,2-1.3,3.5-1.3c1.5,0,2.7,0.4,3.5,1.3C41.8,101.6,42.2,102.9,42.2,104.5z M35,104.5c0,1.1,0.2,1.9,0.6,2.5
		c0.4,0.6,1,0.8,1.9,0.8c1.7,0,2.5-1.1,2.5-3.3c0-2.2-0.8-3.3-2.5-3.3c-0.8,0-1.5,0.3-1.9,0.8C35.2,102.6,35,103.4,35,104.5z
		 M53.1,104.5c0,1.6-0.4,2.9-1.2,3.7s-2,1.3-3.5,1.3s-2.7-0.4-3.5-1.3c-0.8-0.9-1.2-2.1-1.2-3.8s0.4-2.9,1.2-3.7
		c0.8-0.9,2-1.3,3.5-1.3s2.7,0.4,3.5,1.3C52.7,101.6,53.1,102.9,53.1,104.5z M45.9,104.5c0,1.1,0.2,1.9,0.6,2.5
		c0.4,0.6,1,0.8,1.9,0.8c1.7,0,2.5-1.1,2.5-3.3c0-2.2-0.8-3.3-2.5-3.3c-0.8,0-1.5,0.3-1.9,0.8C46.1,102.6,45.9,103.4,45.9,104.5z
		 M58.9,109.4h-2.1v-8.1h-2.7v-1.7h7.4v1.7h-2.7V109.4z M68.9,106.7c0,0.9-0.3,1.6-1,2.1c-0.6,0.5-1.5,0.8-2.7,0.8
		c-1,0-2-0.2-2.8-0.6v-1.9c0.7,0.3,1.2,0.5,1.7,0.6c0.5,0.1,0.9,0.2,1.3,0.2c0.5,0,0.8-0.1,1.1-0.3c0.2-0.2,0.4-0.4,0.4-0.8
		c0-0.2-0.1-0.4-0.2-0.5c-0.1-0.1-0.3-0.3-0.5-0.4c-0.2-0.1-0.6-0.4-1.3-0.7c-0.6-0.3-1.1-0.6-1.3-0.8c-0.3-0.3-0.5-0.6-0.7-0.9
		c-0.2-0.3-0.3-0.7-0.3-1.2c0-0.9,0.3-1.6,0.9-2c0.6-0.5,1.4-0.7,2.4-0.7c0.5,0,1,0.1,1.5,0.2s0.9,0.3,1.5,0.5l-0.7,1.6
		c-0.5-0.2-1-0.4-1.3-0.5c-0.3-0.1-0.7-0.1-1-0.1c-0.4,0-0.7,0.1-0.9,0.3c-0.2,0.2-0.3,0.4-0.3,0.7c0,0.2,0,0.3,0.1,0.5
		c0.1,0.1,0.2,0.3,0.4,0.4s0.6,0.4,1.3,0.7c0.9,0.4,1.5,0.9,1.9,1.3C68.7,105.5,68.9,106.1,68.9,106.7z M74.5,109.4h-2.1v-8.1h-2.7
		v-1.7h7.4v1.7h-2.7C74.5,101.4,74.5,109.4,74.5,109.4z M80.7,105.7v3.8h-2.1v-9.8h2.9c1.3,0,2.3,0.2,3,0.7c0.6,0.5,1,1.2,1,2.2
		c0,0.6-0.2,1.1-0.5,1.5s-0.8,0.8-1.3,1.1c1.5,2.2,2.4,3.6,2.9,4.3h-2.3l-2.3-3.8L80.7,105.7L80.7,105.7z M80.7,104h0.7
		c0.7,0,1.1-0.1,1.5-0.3s0.5-0.6,0.5-1c0-0.5-0.2-0.8-0.5-1c-0.3-0.2-0.8-0.3-1.5-0.3h-0.6C80.7,101.3,80.7,104,80.7,104z
		 M93.7,109.4l-0.7-2.3h-3.6l-0.7,2.3h-2.2l3.5-9.9h2.5l3.5,9.9H93.7z M92.5,105.4c-0.7-2.1-1-3.3-1.1-3.6c-0.1-0.3-0.1-0.5-0.2-0.7
		c-0.1,0.6-0.6,2-1.3,4.3C90,105.4,92.5,105.4,92.5,105.4z M104,102.7c0,1.1-0.3,1.9-1,2.4c-0.7,0.6-1.6,0.8-2.8,0.8h-0.9v3.5h-2.1
		v-9.8h3.1c1.2,0,2.1,0.3,2.7,0.8C103.7,100.9,104,101.7,104,102.7z M99.3,104.2h0.7c0.6,0,1.1-0.1,1.4-0.4c0.3-0.3,0.5-0.6,0.5-1.1
		c0-0.5-0.1-0.8-0.4-1.1c-0.3-0.2-0.7-0.3-1.3-0.3h-0.9L99.3,104.2L99.3,104.2z M71.3,58.6c-1.5-0.5-3.6-0.6-6.3-0.6h-9.8v14.7h10.6
		c1.8,0,3.1-0.2,3.9-0.3c1.3-0.2,2.4-0.7,3.3-1.2c0.9-0.5,1.6-1.4,2.2-2.4c0.6-1,0.9-2.3,0.9-3.6c0-1.6-0.4-2.9-1.2-4.1
		C73.9,59.9,72.8,59.1,71.3,58.6z M69.8,52.3c1.4-0.4,2.5-1.2,3.3-2.2c0.7-1,1.1-2.3,1.1-3.8c0-1.4-0.3-2.7-1-3.8
		c-0.7-1.1-1.7-1.8-2.9-2.2c-1.3-0.4-3.5-0.6-6.5-0.6h-8.5v13.2h9.2C66.9,52.9,68.7,52.6,69.8,52.3z M102.9,28.8
		c0-5.7-4.6-10.4-10.4-10.4H35.5c-5.7,0-10.4,4.6-10.4,10.4v57.1c0,5.7,4.6,10.4,10.4,10.4h57.1c5.7,0,10.4-4.6,10.4-10.4V28.8z
		 M80.6,70.8c-0.8,1.7-1.9,3.1-3.2,4c-1.3,0.9-2.8,1.8-4.7,2.3c-1.9,0.5-4.2,0.9-6.9,0.9H49.3V34.6h16.2c3.3,0,5.9,0.5,7.9,1.3
		c2,0.9,3.5,2.2,4.7,4c1.1,1.8,1.7,3.7,1.7,5.7c0,1.8-0.5,3.6-1.5,5.2c-1,1.6-2.5,2.9-4.5,3.9c2.6,0.8,4.6,2.1,6,3.9
		c1.4,1.8,2.1,4,2.1,6.5C81.9,67.2,81.4,69,80.6,70.8z"/>
</g>
</svg>
