<?xml version="1.0" encoding="utf-8"?>
<!-- Generator: Adobe Illustrator 25.0.0, SVG Export Plug-In . SVG Version: 6.00 Build 0)  -->
<svg version="1.1" id="图层_1" xmlns="http://www.w3.org/2000/svg" xmlns:xlink="http://www.w3.org/1999/xlink" x="0px" y="0px"
	 viewBox="0 0 128 128" style="enable-background:new 0 0 128 128;" xml:space="preserve">
<style type="text/css">
	.st0{fill:#264DE4;}
	.st1{fill:#2965F1;}
	.st2{fill:#EBEBEB;}
	.st3{fill:#FFFFFF;}
</style>
<g>
	<path class="st0" d="M63.9,128l-37-10.3l-8.3-92.6h90.7l-8.3,92.5C101.1,117.7,63.9,128,63.9,128z"/>
	<path class="st1" d="M94,111.8l7.1-79.1H64v87.4L94,111.8z"/>
	<path class="st2" d="M37.6,67.1l1,11.4H64V67.1H37.6z M35.5,44.1l1,11.4H64V44.1H35.5z M64,96.5L64,96.5l-12.7-3.4l-0.8-9.1H39.1
		l1.6,17.8l23.3,6.5l0.1,0C64,108.3,64,96.5,64,96.5z"/>
	<path d="M40,0h13.7v5.8h-8v5.8h8v5.7H40V0z M56.5,0h13.7v5h-8v1h8v11.5H56.5v-5.3h8v-1h-8L56.5,0L56.5,0z M73,0h13.7v5h-8v1h8v11.5
		H73v-5.3h8v-1h-8L73,0L73,0z"/>
	<path class="st3" d="M90.3,67.1l2-23H64v11.4h16l-1,11.6H64v11.4h14l-1.3,14.7L64,96.5v11.8l23.3-6.4l0.2-1.9l2.7-29.9L90.3,67.1
		L90.3,67.1z"/>
</g>
</svg>
