<?xml version="1.0" encoding="utf-8"?>
<!-- Generator: Adobe Illustrator 25.0.0, SVG Export Plug-In . SVG Version: 6.00 Build 0)  -->
<svg version="1.1" id="图层_1" xmlns="http://www.w3.org/2000/svg" xmlns:xlink="http://www.w3.org/1999/xlink" x="0px" y="0px"
	 viewBox="0 0 128 128" style="enable-background:new 0 0 128 128;" xml:space="preserve">
<style type="text/css">
	.st0{fill:#264DE4;}
	.st1{fill:#2965F1;}
	.st2{fill:#EBEBEB;}
	.st3{fill:#FFFFFF;}
</style>
<g>
	<path class="st0" d="M64,120.4l-32.6-9.1L24,29.7h80l-7.3,81.6C96.8,111.4,64,120.4,64,120.4z"/>
	<path class="st1" d="M90.5,106.2l6.3-69.8H64v77.1L90.5,106.2z"/>
	<path class="st2" d="M40.8,66.7l0.9,10.1H64V66.7H40.8z M38.9,46.4l0.9,10.1H64V46.4H38.9z M64,92.7L64,92.7l-11.2-3l-0.7-8H42.1
		l1.4,15.7l20.6,5.7h0.1C64,103.1,64,92.7,64,92.7z"/>
	<path d="M42.9,7.6H55v5.1h-7.1v5.1H55v5H42.9V7.6z M57.4,7.6h12.1V12h-7.1v0.9h7.1V23H57.4v-4.7h7.1v-0.9h-7.1V7.6L57.4,7.6z
		 M72,7.6h12.1V12H77v0.9h7.1V23H72v-4.7H79v-0.9H72V7.6L72,7.6z"/>
	<path class="st3" d="M87.2,66.7L89,46.4H64v10.1h14.1l-0.9,10.2H64v10.1h12.3l-1.1,13L64,92.7v10.4l20.6-5.6l0.2-1.7l2.4-26.4
		L87.2,66.7L87.2,66.7z"/>
</g>
</svg>
