<?xml version="1.0" encoding="utf-8"?>
<!-- Generator: Adobe Illustrator 25.0.0, SVG Export Plug-In . SVG Version: 6.00 Build 0)  -->
<svg version="1.1" id="图层_1" xmlns="http://www.w3.org/2000/svg" xmlns:xlink="http://www.w3.org/1999/xlink" x="0px" y="0px"
	 viewBox="0 0 128 128" style="enable-background:new 0 0 128 128;" xml:space="preserve">
<style type="text/css">
	.st0{fill-rule:evenodd;clip-rule:evenodd;fill:#3A4D54;}
	.st1{fill:#00AADA;}
	.st2{fill:#28B8EB;}
	.st3{fill:#028BB8;}
	.st4{fill:#019BC6;}
	.st5{fill-rule:evenodd;clip-rule:evenodd;fill:#00ACD3;}
	.st6{fill-rule:evenodd;clip-rule:evenodd;fill:#23C2EE;}
	.st7{fill-rule:evenodd;clip-rule:evenodd;fill:#D4EEF1;}
	.st8{fill:#BFDBE0;}
	.st9{fill:#D4EEF1;}
</style>
<g>
	<path class="st0" d="M36.1,84.9v-5.1c0-0.7,0.4-1.2,1.1-1.2h0.2c0.7,0,1.1,0.6,1.1,1.2v10.8c0,2.6-1.3,4.7-3.6,6
		c-1.1,0.6-2.2,1-3.4,1H31c-2.6,0-4.7-1.3-6-3.6c-0.6-1.1-1-2.2-1-3.4V90c0-2.6,1.3-4.7,3.6-6c1.1-0.6,2.2-1,3.4-1h0.5
		C33.3,83.1,34.8,83.7,36.1,84.9z M26.5,90.3c0,1.9,1,3.3,2.6,4.3c0.7,0.4,1.4,0.6,2.2,0.6c1.8,0,3.2-0.9,4.2-2.5
		c0.4-0.8,0.6-1.5,0.6-2.4c0-1.7-0.8-2.9-2.1-3.9c-0.8-0.6-1.7-0.9-2.7-0.9c-2,0-3.5,1-4.4,2.9C26.6,88.9,26.5,89.6,26.5,90.3z
		 M46.9,83.1h0.3c2.8,0,5,1.3,6.3,3.8c0.6,1,0.8,2,0.8,3.2v0.5c0,2.6-1.3,4.7-3.6,6c-1.1,0.6-2.2,1-3.4,1h-0.5c-2.6,0-4.7-1.3-6-3.6
		c-0.6-1.1-1-2.2-1-3.4v-0.5c0-2.6,1.3-4.7,3.6-6C44.5,83.3,45.7,83.1,46.9,83.1z M42.3,90.3c0,1.8,0.9,3.2,2.5,4.1
		c0.8,0.4,1.5,0.6,2.4,0.6c1.8,0,3.2-1,4.1-2.5c0.4-0.8,0.6-1.5,0.6-2.4c0-1.7-0.8-3-2.2-4c-0.8-0.5-1.7-0.8-2.5-0.8
		c-2,0-3.5,1-4.4,2.9C42.5,88.9,42.3,89.6,42.3,90.3z M64.4,85.7c-0.4-0.2-1.1-0.3-1.5-0.3c-2-0.1-3.5,1.1-4.4,2.9
		c-0.3,0.6-0.4,1.3-0.4,2c0,2.1,1.1,3.6,2.9,4.4c0.7,0.3,1.5,0.4,2.3,0.4c0.6,0,1.6-0.4,2.2-0.7l0.1-0.1h0.5c0.6,0.1,1,0.4,1,1.1
		v0.3c0,1.5-2.7,1.8-3.7,1.9c-3.6,0.3-6.3-1.7-7.4-5.2c-0.2-0.6-0.3-1.2-0.3-1.8V90c0-2.6,1.3-4.7,3.6-6c1.1-0.6,2.2-1,3.4-1h0.5
		c1.3,0,2.5,0.4,3.6,1.1l0.1,0.1l0.1,0.1c0.1,0.2,0.2,0.4,0.2,0.6v0.3c0,0.6-0.4,1-1,1.1h-0.2C65.6,86.2,64.8,85.8,64.4,85.7
		L64.4,85.7z M72.3,87.3c1-1,1.9-1.9,2.9-2.8c0.3-0.3,1.3-1.3,1.7-1.3h0.5c0.6,0.1,1,0.4,1,1.1v0.3c0,0.4-0.4,0.9-0.8,1.1l-1.7,1.7
		l-2.9,3c1.3,1.3,2.5,2.5,3.7,3.8l1,1.1c0.1,0.1,0.3,0.3,0.4,0.4c0.1,0.2,0.2,0.4,0.2,0.6v0.3c-0.1,0.6-0.5,1-1.1,1H77
		c-0.4,0-0.8-0.4-1.1-0.7c-0.6-0.5-1.1-1.1-1.7-1.7l-1.8-1.8v2.9c0,0.7-0.4,1.2-1.1,1.2H71c-0.7,0-1.1-0.6-1.1-1.2V79.8
		c0-0.7,0.4-1.2,1.1-1.2h0.2c0.7,0,1.1,0.5,1.1,1.2C72.3,79.8,72.3,87.3,72.3,87.3z M102.5,83.1h0.3c0.7,0,1.2,0.5,1.2,1.2
		c0,1-1,1.3-1.8,1.3c-1.1,0-2.2,0.6-2.9,1.4c-1,1-1.3,2.1-1.3,3.4v5.8c0,0.7-0.4,1.2-1.1,1.2h-0.2c-0.7,0-1.1-0.6-1.1-1.2v-6.2
		c0-2.4,1.1-4.3,3.1-5.7C99.8,83.6,101.1,83.1,102.5,83.1z M85.3,94.8c0.9,0.3,1.9,0.3,2.8,0.1c0.4-0.2,1.7-0.7,2.1-0.6h0.1
		c0.3,0.1,0.5,0.3,0.6,0.6c0.3,0.6,0.2,1.3-0.4,1.7l-0.2,0.1c-2.3,1.3-4.8,1.1-7-0.1c-1.1-0.6-1.9-1.5-2.5-2.5l-0.1-0.3
		c-1.5-2.5-1.3-5.3,0.4-7.7c0.6-0.8,1.3-1.5,2.2-2l0.3-0.2c2.2-1.3,4.5-1.1,6.7-0.1c1.2,0.6,2.2,1.5,2.9,2.6l0.1,0.2
		c0.5,0.8-0.1,1.6-0.8,2.1c-0.8,0.6-1.5,1.3-2.2,1.9C88.6,92,86.9,93.4,85.3,94.8z M83.2,93.3l5.4-4.6c0.6-0.5,1.3-1.1,1.9-1.7
		c-0.5-0.6-1.3-1.1-2-1.3c-1.4-0.5-2.8-0.4-4.1,0.4c-1.7,1-2.4,2.5-2.3,4.4c0,0.8,0.3,1.5,0.6,2.2C82.9,92.9,83,93.1,83.2,93.3"/>
	<path class="st0" d="M70.2,44.7h7.2V52H81c1.7,0,3.4-0.3,5-0.8c0.8-0.3,1.7-0.6,2.4-1.1c-1-1.3-1.5-3-1.7-4.6
		c-0.2-2.2,0.3-5.1,1.8-6.9l0.8-0.9l0.9,0.7c2.3,1.8,4.1,4.3,4.5,7.2c2.7-0.8,5.9-0.6,8.3,0.8l1,0.6l-0.5,1c-2,3.9-6.3,5.2-10.4,5
		c-6.2,15.4-19.7,22.7-36.1,22.7c-8.4,0-16.2-3.2-20.6-10.7l-0.1-0.1l-0.6-1.3c-1.5-3.3-2-6.9-1.7-10.5L34,52h6.1v-7.2h7.2v-7.2
		h14.3v-7.2h8.6C70.2,30.4,70.2,44.7,70.2,44.7z"/>
	<path class="st1" d="M93.3,47.4c0.5-3.7-2.3-6.7-4.1-8.1c-2,2.3-2.3,8.4,0.8,10.9c-1.8,1.5-5.4,3-9.2,3H35
		c-0.4,3.9,0.3,7.6,1.9,10.7l0.5,1c0.3,0.6,0.7,1.1,1.1,1.7c1.9,0.1,3.6,0.2,5.2,0.1c3.1-0.1,5.7-0.4,7.6-1.1
		c0.3-0.1,0.6,0.1,0.7,0.3c0.1,0.3-0.1,0.6-0.3,0.7c-0.3,0.1-0.5,0.2-0.8,0.3c-1.5,0.4-3.2,0.7-5.3,0.8h-0.4
		c-0.8,0.1-1.7,0.1-2.7,0.1c-1,0-2,0-3.1-0.1c3.8,4.3,9.8,6.9,17.3,6.9c15.9,0,29.3-7,35.2-22.8c4.3,0.4,8.3-0.6,10.2-4.3
		C99.3,45.8,95.5,46.3,93.3,47.4z"/>
	<path class="st2" d="M93.3,47.4c0.5-3.7-2.3-6.7-4.1-8.1c-2,2.3-2.3,8.4,0.8,10.9c-1.8,1.5-5.4,3-9.2,3H37.7c-0.2,6,2,10.6,6,13.3
		c3.1-0.1,5.7-0.4,7.6-1.1c0.3-0.1,0.6,0.1,0.7,0.3c0.1,0.3-0.1,0.6-0.3,0.7c-0.3,0.1-0.5,0.2-0.8,0.3c-1.5,0.4-3.3,0.8-5.4,0.9
		l-0.1-0.1c5.4,2.8,13.2,2.7,22.2-0.7c10-3.9,19.4-11.2,26-19.6C93.5,47.3,93.5,47.4,93.3,47.4L93.3,47.4z"/>
	<path class="st3" d="M35.1,58c0.3,2.1,0.9,4.1,1.8,5.9l0.5,1c0.3,0.6,0.7,1.1,1.1,1.7c1.9,0.1,3.6,0.2,5.2,0.1
		c3.1-0.1,5.7-0.4,7.6-1.1c0.3-0.1,0.6,0.1,0.7,0.3c0.1,0.3-0.1,0.6-0.3,0.7c-0.3,0.1-0.5,0.2-0.8,0.3c-1.5,0.4-3.3,0.8-5.4,0.9
		h-0.3c-0.8,0.1-1.7,0.1-2.6,0.1c-1,0-2,0-3.1-0.1c3.8,4.3,9.8,6.9,17.3,6.9c13.6,0,25.4-5.1,32.3-16.5L35.1,58
		C35.1,58.1,35.1,58,35.1,58z"/>
	<path class="st4" d="M38.2,58c0.8,3.7,2.7,6.6,5.6,8.6c3.1-0.1,5.7-0.4,7.6-1.1c0.3-0.1,0.6,0.1,0.7,0.3c0.1,0.3-0.1,0.6-0.3,0.7
		c-0.3,0.1-0.5,0.2-0.8,0.3c-1.5,0.4-3.3,0.8-5.5,0.9c5.4,2.8,13.2,2.7,22.2-0.7c5.4-2.1,10.7-5.2,15.4-9C83,58,38.2,58,38.2,58z"/>
	<path class="st5" d="M41.3,45.9h6.2v6.2h-6.2V45.9z M41.8,46.4h0.5v5.1h-0.5V46.4z M42.7,46.4h0.5v5.1h-0.5V46.4z M43.7,46.4h0.5
		v5.1h-0.5V46.4z M44.6,46.4h0.5v5.1h-0.5V46.4z M45.5,46.4H46v5.1h-0.5V46.4z M46.5,46.4H47v5.1h-0.5V46.4z M48.4,38.8h6.2v6.2
		h-6.2V38.8z M49,39.3h0.5v5.1H49C49,44.4,49,39.3,49,39.3z M49.9,39.3h0.5v5.1h-0.5C49.9,44.4,49.9,39.3,49.9,39.3z M50.8,39.3h0.5
		v5.1h-0.5C50.8,44.4,50.8,39.3,50.8,39.3z M51.7,39.3h0.5v5.1h-0.5C51.7,44.4,51.7,39.3,51.7,39.3z M52.7,39.3h0.5v5.1h-0.5
		C52.7,44.4,52.7,39.3,52.7,39.3z M53.7,39.3h0.5v5.1h-0.5C53.7,44.4,53.7,39.3,53.7,39.3z"/>
	<path class="st6" d="M48.4,45.9h6.2v6.2h-6.2V45.9z M49,46.4h0.5v5.1H49V46.4z M49.9,46.4h0.5v5.1h-0.5V46.4z M50.8,46.4h0.5v5.1
		h-0.5V46.4z M51.7,46.4h0.5v5.1h-0.5V46.4z M52.7,46.4h0.5v5.1h-0.5V46.4z M53.7,46.4h0.5v5.1h-0.5V46.4z"/>
	<path class="st5" d="M55.6,45.9h6.2v6.2h-6.2V45.9z M56.1,46.4h0.5v5.1h-0.5V46.4z M57,46.4h0.5v5.1H57V46.4z M58,46.4h0.5v5.1H58
		V46.4z M58.9,46.4h0.5v5.1h-0.5V46.4z M59.9,46.4h0.5v5.1h-0.5V46.4z M60.8,46.4h0.5v5.1h-0.5V46.4z"/>
	<path class="st6" d="M55.6,38.8h6.2v6.2h-6.2V38.8z M56.1,39.3h0.5v5.1h-0.5C56.1,44.4,56.1,39.3,56.1,39.3z M57,39.3h0.5v5.1H57
		C57,44.4,57,39.3,57,39.3z M58,39.3h0.5v5.1H58C58,44.4,58,39.3,58,39.3z M58.9,39.3h0.5v5.1h-0.5C58.9,44.4,58.9,39.3,58.9,39.3z
		 M59.9,39.3h0.5v5.1h-0.5C59.9,44.4,59.9,39.3,59.9,39.3z M60.8,39.3h0.5v5.1h-0.5C60.8,44.4,60.8,39.3,60.8,39.3z M62.7,45.9H69
		v6.2h-6.2C62.7,52.1,62.7,45.9,62.7,45.9z M63.3,46.4h0.5v5.1h-0.5V46.4z M64.2,46.4h0.5v5.1h-0.5V46.4z M65.1,46.4h0.5v5.1h-0.5
		V46.4z M66.1,46.4h0.5v5.1h-0.5V46.4z M67,46.4h0.5v5.1H67V46.4z M67.9,46.4h0.5v5.1h-0.5V46.4z"/>
	<path class="st5" d="M62.7,38.8H69v6.2h-6.2C62.7,44.9,62.7,38.8,62.7,38.8z M63.3,39.3h0.5v5.1h-0.5
		C63.3,44.4,63.3,39.3,63.3,39.3z M64.2,39.3h0.5v5.1h-0.5C64.2,44.4,64.2,39.3,64.2,39.3z M65.1,39.3h0.5v5.1h-0.5
		C65.1,44.4,65.1,39.3,65.1,39.3z M66.1,39.3h0.5v5.1h-0.5C66.1,44.4,66.1,39.3,66.1,39.3z M67,39.3h0.5v5.1H67
		C67,44.4,67,39.3,67,39.3z M67.9,39.3h0.5v5.1h-0.5C67.9,44.4,67.9,39.3,67.9,39.3z"/>
	<path class="st6" d="M62.7,31.6H69v6.2h-6.2C62.7,37.8,62.7,31.6,62.7,31.6z M63.3,32.1h0.5v5.2h-0.5V32.1z M64.2,32.1h0.5v5.2
		h-0.5V32.1z M65.1,32.1h0.5v5.2h-0.5V32.1z M66.1,32.1h0.5v5.2h-0.5V32.1z M67,32.1h0.5v5.2H67V32.1z M67.9,32.1h0.5v5.2h-0.5V32.1
		z"/>
	<path class="st5" d="M69.9,45.9h6.2v6.2h-6.2V45.9z M70.4,46.4h0.5v5.1h-0.5V46.4z M71.4,46.4h0.5v5.1h-0.5V46.4z M72.3,46.4h0.5
		v5.1h-0.5V46.4z M73.2,46.4h0.5v5.1h-0.5V46.4z M74.2,46.4h0.5v5.1h-0.5V46.4z M75.1,46.4h0.5v5.1h-0.5V46.4z"/>
	<path class="st7" d="M54.2,62.2c1,0,1.7,0.8,1.7,1.7c0,1-0.8,1.7-1.7,1.7s-1.7-0.8-1.7-1.7C52.6,63,53.3,62.2,54.2,62.2"/>
	<path class="st0" d="M54.2,62.6c0.1,0,0.3,0,0.4,0.1c-0.1,0.1-0.3,0.3-0.3,0.4c0,0.3,0.3,0.5,0.5,0.5c0.2,0,0.4-0.1,0.4-0.3
		c0.1,0.1,0.1,0.3,0.1,0.4c0,0.7-0.6,1.2-1.2,1.2c-0.7,0-1.2-0.6-1.2-1.2C53,63.2,53.6,62.6,54.2,62.6 M24,58.6h79.6
		c-1.7-0.4-5.5-1-4.9-3.3C95.5,59,87.9,57.9,86,56.1c-2.2,3.1-14.6,1.9-15.4-0.5c-2.7,3.2-11,3.2-13.7,0C56,58,43.6,59.2,41.5,56.1
		c-1.9,1.8-9.5,2.9-12.7-0.8C29.5,57.6,25.7,58.2,24,58.6"/>
	<path class="st8" d="M58.8,74.5c-4.3-2-6.5-4.8-7.9-7.7c-1.6,0.4-3.5,0.8-5.7,0.9c-0.8,0.1-1.7,0.1-2.6,0.1c-1.1,0-2.2,0-3.3-0.1
		c3.9,3.9,8.7,6.9,17.5,6.9C57.5,74.5,58.2,74.5,58.8,74.5z"/>
	<path class="st9" d="M52.5,69.5c-0.6-0.8-1.1-1.8-1.6-2.7c-1.6,0.4-3.5,0.8-5.7,0.9C46.8,68.5,49,69.2,52.5,69.5z"/>
</g>
</svg>
