<?xml version="1.0" encoding="utf-8"?>
<!-- Generator: Adobe Illustrator 25.0.0, SVG Export Plug-In . SVG Version: 6.00 Build 0)  -->
<svg version="1.1" id="图层_1" xmlns="http://www.w3.org/2000/svg" xmlns:xlink="http://www.w3.org/1999/xlink" x="0px" y="0px"
	 viewBox="0 0 128 128" style="enable-background:new 0 0 128 128;" xml:space="preserve">
<style type="text/css">
	.st0{fill:#CFD8DC;}
	.st1{fill:#455A64;}
	.st2{fill:#64DD17;}
	.st3{fill:#1E88E5;}
	.st4{fill:#AB47BC;}
	.st5{fill:#B2FF59;}
	.st6{fill:#00ACC1;}
	.st7{fill:#7C4DFF;}
	.st8{fill:#FFEA00;}
	.st9{fill:#FFA726;}
	.st10{fill:#FDD835;}
	.st11{fill:#E91E63;}
	.st12{fill:#FF7043;}
	.st13{fill:#F44336;}
	.st14{fill:#76FF03;}
	.st15{fill:#64B5F6;}
	.st16{fill:#BA68C8;}
	.st17{fill:#CCFF90;}
	.st18{fill:#4DD0E1;}
	.st19{fill:#9575CD;}
	.st20{fill:#FFEE58;}
	.st21{fill:#FFB74D;}
	.st22{fill:#FFEB3B;}
	.st23{fill:#F06292;}
	.st24{fill:#FF8A65;}
	.st25{fill:#FF5252;}
	.st26{fill:#BAFF81;}
	.st27{fill:#90CAF9;}
	.st28{fill:#CE93D8;}
	.st29{fill:#DBFFB1;}
	.st30{fill:#80DEEA;}
	.st31{fill:#B39DDB;}
	.st32{fill:#FFF59D;}
	.st33{fill:#FFCC80;}
	.st34{fill:#FFF176;}
	.st35{fill:#F48FB1;}
	.st36{fill:#FFAB91;}
	.st37{fill:#FF8A80;}
	.st38{fill:#E5FFC7;}
	.st39{fill:#BBDEFB;}
	.st40{fill:#E1BEE7;}
	.st41{fill:#B2EBF2;}
	.st42{fill:#D1C4E9;}
	.st43{fill:#FFF9C4;}
	.st44{fill:#FFE0B2;}
	.st45{fill:#F8BBD0;}
	.st46{fill:#FFCCBC;}
	.st47{fill:#FFCDD2;}
</style>
<g>
	<path class="st0" d="M119.4,113.2l-73.2,11.4l-20.3,3.2c-5.6,0.9-10.8-2.8-11.7-8.3L1.7,43l113.7-17.8l12.5,76.5
		C128.8,107.2,125,112.4,119.4,113.2L119.4,113.2z"/>
	<path class="st1" d="M111.4,7.3c-1.6-5.3-7.3-8.4-12.7-6.9L7.4,26.1c-5.4,1.5-8.6,7.1-7,12.4L1.8,43l111-31.2L111.4,7.3z
		 M115.4,25.2l-13.7,15.6l-0.2,0.2l-16.3,2.5l0.2-0.2l13.7-15.6L115.4,25.2z M82.9,30.3L69.2,45.9l-16.3,2.6l13.8-15.6L82.9,30.3z
		 M50.2,35.4L36.5,51l-16.2,2.6L34.1,38L50.2,35.4z"/>
	<path class="st1" d="M17.8,40.5L4.2,56.1l-0.2,0.2l-0.1-0.2L1.7,43L17.8,40.5z"/>
	<path class="st0" d="M112.7,11.8L91.2,2.5l7.5-2.1c1-0.3,1.9-0.4,2.8-0.4c4.5,0,8.6,2.8,9.9,7.3L112.7,11.8z M96.9,16.2l-15.8,4.5
		l-21.5-9.3l15.8-4.5L96.9,16.2z M65.2,25.2l-15.8,4.5l-21.5-9.3l15.9-4.4L65.2,25.2z M33.5,34.1l-15.9,4.5L1,31.3
		c1.2-2.5,3.5-4.5,6.4-5.3l4.6-1.3C12,24.8,33.5,34.1,33.5,34.1z"/>
	<path class="st2" d="M66.4,83.2L52.5,116l-27.8,4.4c-1.5,0.2-2.8-0.7-3-2l-0.2-1.3L66.4,83.2z"/>
	<path class="st3" d="M87.5,110.5l-17.3,2.7l-3.9-30L87.5,110.5z"/>
	<path class="st4" d="M120.3,103c0.1,0.8-0.2,1.3-0.4,1.7c-0.1,0.1-0.2,0.2-0.4,0.4L66.4,83.2l49.7-6.3L120.3,103z"/>
	<path class="st5" d="M66.4,83.2L21.5,117L17,89.4L66.4,83.2z"/>
	<path class="st6" d="M70.3,113.2L52.5,116l13.9-32.8L70.3,113.2z"/>
	<path class="st7" d="M119.6,105.1c-0.3,0.3-0.7,0.6-1.4,0.6l-30.7,4.8L66.4,83.2L119.6,105.1z"/>
	<path class="st8" d="M66.4,83.2L17,89.4L12.4,61L66.4,83.2z"/>
	<path class="st9" d="M66.4,83.2L45.2,55.8l17.2-2.7L66.4,83.2z"/>
	<path class="st10" d="M66.4,83.2L12.4,61l32.8-5.1L66.4,83.2z"/>
	<path class="st11" d="M116.1,76.8l-49.7,6.3l45.2-34.1L116.1,76.8z"/>
	<path class="st12" d="M80.3,50.3L66.4,83.2l-3.9-30L80.3,50.3z"/>
	<path class="st13" d="M111.6,49.1L66.4,83.2l13.9-32.8l30.7-4.8L111.6,49.1z"/>
	<path class="st14" d="M46.4,98.2c2.6,3.5,6.1,6.3,10.2,8l9.7-23.1L46.4,98.2z"/>
	<path class="st15" d="M69.6,108c4.5-0.6,8.7-2.4,12.1-5L66.4,83.2L69.6,108z"/>
	<path class="st16" d="M89.5,92.7c1.2-2.9,1.9-6.2,1.9-9.6c0-1.1-0.1-2.1-0.2-3.1l-24.8,3.2L89.5,92.7L89.5,92.7z"/>
	<path class="st17" d="M41.6,86.3c0.6,4.4,2.3,8.5,4.9,11.9l20-15.1L41.6,86.3z"/>
	<path class="st18" d="M56.6,106.2c3,1.3,6.3,2,9.7,2c1.1,0,2.2-0.1,3.2-0.2l-3.2-24.8L56.6,106.2z"/>
	<path class="st19" d="M81.7,102.9c3.4-2.7,6.2-6.2,7.8-10.3l-23.1-9.5L81.7,102.9L81.7,102.9z"/>
	<path class="st20" d="M66.4,83.2l-23.2-9.5c-1.2,2.9-1.9,6.1-1.9,9.5c0,1.1,0.1,2.1,0.2,3.2L66.4,83.2L66.4,83.2z"/>
	<path class="st21" d="M63.2,58.3c-4.5,0.6-8.7,2.4-12.1,5l15.3,19.8C66.4,83.1,63.2,58.3,63.2,58.3z"/>
	<path class="st22" d="M51.1,63.4c-3.5,2.7-6.2,6.2-7.9,10.3l23.2,9.5C66.4,83.2,51.1,63.4,51.1,63.4z"/>
	<path class="st23" d="M66.4,83.2L91.2,80c-0.6-4.4-2.3-8.5-4.8-11.9L66.4,83.2z"/>
	<path class="st24" d="M63.2,58.3l3.2,24.8l9.8-23.1c-3-1.3-6.3-2-9.8-2C65.3,58.1,64.2,58.2,63.2,58.3z"/>
	<path class="st25" d="M86.4,68.1c-2.6-3.5-6.1-6.3-10.2-8l-9.8,23.1L86.4,68.1z"/>
	<path class="st26" d="M66.4,83.1l-6.3,14.8c-2.6-1.1-4.9-2.9-6.6-5.1L66.4,83.1z"/>
	<path class="st27" d="M76.2,95.9c-2.2,1.7-4.9,2.8-7.8,3.2l-2.1-15.9L76.2,95.9L76.2,95.9z"/>
	<path class="st28" d="M82.5,83.1c0,2.2-0.5,4.3-1.2,6.2l-14.9-6.1l16-2C82.4,81.8,82.5,82.5,82.5,83.1z"/>
	<path class="st29" d="M66.4,83.1l-12.8,9.7c-1.6-2.2-2.8-4.8-3.1-7.7L66.4,83.1L66.4,83.1z"/>
	<path class="st30" d="M68.4,99.1c-0.7,0.1-1.4,0.2-2.1,0.2c-2.2,0-4.4-0.5-6.3-1.3l6.3-14.8L68.4,99.1z"/>
	<path class="st31" d="M81.3,89.3c-1.1,2.6-2.8,4.9-5,6.6l-9.8-12.7L81.3,89.3z"/>
	<path class="st32" d="M66.4,83.1l-16,2c-0.1-0.7-0.1-1.4-0.1-2c0-2.2,0.5-4.2,1.2-6.1L66.4,83.1L66.4,83.1z"/>
	<path class="st33" d="M66.4,83.1l-9.9-12.8c2.2-1.7,4.9-2.8,7.8-3.2L66.4,83.1z"/>
	<path class="st34" d="M66.4,83.1L51.5,77c1.1-2.6,2.8-4.9,5-6.6L66.4,83.1z"/>
	<path class="st35" d="M82.3,81.1l-16,2l12.9-9.7C80.9,75.6,82,78.3,82.3,81.1L82.3,81.1z"/>
	<path class="st36" d="M72.7,68.3l-6.3,14.8l-2.1-16c0.7-0.1,1.4-0.2,2.1-0.2C68.6,67,70.7,67.5,72.7,68.3L72.7,68.3z"/>
	<path class="st37" d="M79.2,73.4l-12.9,9.7l6.3-14.8C75.3,69.4,77.5,71.2,79.2,73.4L79.2,73.4z"/>
	<path class="st38" d="M66.4,83.2l-2.7,6.4c-1.1-0.5-2.1-1.2-2.8-2.2L66.4,83.2z"/>
	<path class="st39" d="M70.6,88.7c-1,0.7-2.1,1.2-3.4,1.4l-0.9-6.9L70.6,88.7z"/>
	<path class="st40" d="M73.4,83.2c0,1-0.2,1.8-0.5,2.7l-6.5-2.7l6.9-0.9C73.3,82.6,73.4,82.8,73.4,83.2z"/>
	<path class="st38" d="M66.4,83.2l-5.6,4.2c-0.7-1-1.2-2.1-1.4-3.3L66.4,83.2z"/>
	<path class="st41" d="M67.3,90.1c-0.3,0.1-0.6,0.1-0.9,0.1c-1,0-1.9-0.2-2.7-0.5l2.7-6.4L67.3,90.1z"/>
	<path class="st42" d="M72.8,85.8c-0.5,1.1-1.2,2.1-2.2,2.9l-4.3-5.5L72.8,85.8z"/>
	<path class="st43" d="M66.4,83.2L59.4,84c-0.1-0.3-0.1-0.6-0.1-0.9c0-1,0.2-1.8,0.5-2.7L66.4,83.2z"/>
	<path class="st44" d="M66.4,83.2l-4.3-5.5c1-0.7,2.1-1.2,3.4-1.4L66.4,83.2z"/>
	<path class="st43" d="M66.4,83.2l-6.5-2.7c0.5-1.1,1.2-2.1,2.2-2.9L66.4,83.2z"/>
	<path class="st45" d="M73.3,82.3l-6.9,0.9L72,79C72.7,79.9,73.1,81,73.3,82.3L73.3,82.3z"/>
	<path class="st46" d="M69.1,76.7l-2.7,6.4l-0.9-6.9c0.3-0.1,0.6-0.1,0.9-0.1C67.3,76.2,68.3,76.4,69.1,76.7z"/>
	<path class="st47" d="M71.9,78.9l-5.6,4.2l2.7-6.4C70.2,77.2,71.2,78,71.9,78.9z"/>
</g>
</svg>
