<?xml version="1.0" encoding="utf-8"?>
<!-- Generator: Adobe Illustrator 25.0.0, SVG Export Plug-In . SVG Version: 6.00 Build 0)  -->
<svg version="1.1" id="图层_1" xmlns="http://www.w3.org/2000/svg" xmlns:xlink="http://www.w3.org/1999/xlink" x="0px" y="0px"
	 viewBox="0 0 128 128" style="enable-background:new 0 0 128 128;" xml:space="preserve">
<style type="text/css">
	.st0{fill:#CFD8DC;}
	.st1{fill:#455A64;}
	.st2{fill:#64DD17;}
	.st3{fill:#1E88E5;}
	.st4{fill:#AB47BC;}
	.st5{fill:#B2FF59;}
	.st6{fill:#00ACC1;}
	.st7{fill:#7C4DFF;}
	.st8{fill:#FFEA00;}
	.st9{fill:#FFA726;}
	.st10{fill:#FDD835;}
	.st11{fill:#E91E63;}
	.st12{fill:#FF7043;}
	.st13{fill:#F44336;}
	.st14{fill:#76FF03;}
	.st15{fill:#64B5F6;}
	.st16{fill:#BA68C8;}
	.st17{fill:#CCFF90;}
	.st18{fill:#4DD0E1;}
	.st19{fill:#9575CD;}
	.st20{fill:#FFEE58;}
	.st21{fill:#FFB74D;}
	.st22{fill:#FFEB3B;}
	.st23{fill:#F06292;}
	.st24{fill:#FF8A65;}
	.st25{fill:#FF5252;}
	.st26{fill:#BAFF81;}
	.st27{fill:#90CAF9;}
	.st28{fill:#CE93D8;}
	.st29{fill:#DBFFB1;}
	.st30{fill:#80DEEA;}
	.st31{fill:#B39DDB;}
	.st32{fill:#FFF59D;}
	.st33{fill:#FFCC80;}
	.st34{fill:#FFF176;}
	.st35{fill:#F48FB1;}
	.st36{fill:#FFAB91;}
	.st37{fill:#FF8A80;}
	.st38{fill:#E5FFC7;}
	.st39{fill:#BBDEFB;}
	.st40{fill:#E1BEE7;}
	.st41{fill:#B2EBF2;}
	.st42{fill:#D1C4E9;}
	.st43{fill:#FFF9C4;}
	.st44{fill:#FFE0B2;}
	.st45{fill:#F8BBD0;}
	.st46{fill:#FFCCBC;}
	.st47{fill:#FFCDD2;}
</style>
<g>
	<path class="st0" d="M98.6,94.8l-45.7,7.1l-12.7,2c-3.5,0.6-6.7-1.7-7.3-5.2l-7.8-47.8l71-11.1l7.8,47.8
		C104.5,91,102.1,94.3,98.6,94.8L98.6,94.8z"/>
	<path class="st1" d="M93.6,28.6c-1-3.3-4.6-5.2-7.9-4.3l-57,16.1c-3.4,0.9-5.4,4.4-4.4,7.7l0.9,2.8l69.4-19.5L93.6,28.6z
		 M96.1,39.8l-8.6,9.7l-0.1,0.1l-10.2,1.6l0.1-0.1l8.6-9.7L96.1,39.8z M75.8,43l-8.6,9.7l-10.2,1.6l8.6-9.7L75.8,43z M55.4,46.2
		l-8.6,9.7l-10.1,1.6l8.6-9.7L55.4,46.2z"/>
	<path class="st1" d="M35.1,49.3l-8.5,9.7l-0.1,0.1l-0.1-0.1l-1.4-8.2L35.1,49.3z"/>
	<path class="st0" d="M94.4,31.4L81,25.6l4.7-1.3c0.6-0.2,1.2-0.2,1.7-0.2c2.8,0,5.4,1.7,6.2,4.6L94.4,31.4z M84.5,34.2L74.7,37
		l-13.4-5.8l9.9-2.8L84.5,34.2z M64.7,39.8l-9.9,2.8l-13.4-5.8l9.9-2.7L64.7,39.8z M44.9,45.3L35,48.2l-10.4-4.6
		c0.7-1.6,2.2-2.8,4-3.3l2.9-0.8C31.5,39.5,44.9,45.3,44.9,45.3z"/>
	<path class="st2" d="M65.5,76l-8.7,20.5l-17.4,2.7c-0.9,0.1-1.7-0.4-1.9-1.2l-0.1-0.8L65.5,76z"/>
	<path class="st3" d="M78.7,93.1l-10.8,1.7L65.4,76L78.7,93.1z"/>
	<path class="st4" d="M99.2,88.4c0.1,0.5-0.1,0.8-0.2,1.1c-0.1,0.1-0.1,0.1-0.2,0.2L65.5,76l31.1-3.9L99.2,88.4z"/>
	<path class="st5" d="M65.5,76L37.4,97.1l-2.8-17.2L65.5,76z"/>
	<path class="st6" d="M67.9,94.8l-11.1,1.7L65.5,76L67.9,94.8z"/>
	<path class="st7" d="M98.7,89.7c-0.2,0.2-0.4,0.4-0.9,0.4l-19.2,3L65.5,76L98.7,89.7z"/>
	<path class="st8" d="M65.5,76l-30.9,3.9l-2.9-17.7L65.5,76z"/>
	<path class="st9" d="M65.5,76L52.2,58.9L63,57.2L65.5,76z"/>
	<path class="st10" d="M65.5,76L31.8,62.1L52.2,59L65.5,76z"/>
	<path class="st11" d="M96.5,72L65.5,76l28.2-21.3L96.5,72z"/>
	<path class="st12" d="M74.2,55.5L65.5,76l-2.4-18.7L74.2,55.5z"/>
	<path class="st13" d="M93.7,54.7L65.5,76l8.7-20.5l19.2-3L93.7,54.7z"/>
	<path class="st14" d="M53,85.4c1.6,2.2,3.8,3.9,6.4,5L65.4,76L53,85.4z"/>
	<path class="st15" d="M67.5,91.5c2.8-0.4,5.4-1.5,7.6-3.1L65.5,76L67.5,91.5z"/>
	<path class="st16" d="M79.9,82c0.7-1.8,1.2-3.9,1.2-6c0-0.7-0.1-1.3-0.1-1.9l-15.5,2L79.9,82L79.9,82z"/>
	<path class="st17" d="M50,78c0.4,2.7,1.4,5.3,3.1,7.4L65.6,76L50,78z"/>
	<path class="st18" d="M59.4,90.4c1.9,0.8,3.9,1.2,6.1,1.2c0.7,0,1.4-0.1,2-0.1l-2-15.5L59.4,90.4z"/>
	<path class="st19" d="M75.1,88.3c2.1-1.7,3.9-3.9,4.9-6.4L65.5,76L75.1,88.3L75.1,88.3z"/>
	<path class="st20" d="M65.5,76L51,70.1c-0.7,1.8-1.2,3.8-1.2,5.9c0,0.7,0.1,1.3,0.1,2L65.5,76L65.5,76z"/>
	<path class="st21" d="M63.5,60.5c-2.8,0.4-5.4,1.5-7.6,3.1L65.5,76L63.5,60.5z"/>
	<path class="st22" d="M55.9,63.6c-2.2,1.7-3.9,3.9-4.9,6.4L65.5,76C65.5,76,55.9,63.6,55.9,63.6z"/>
	<path class="st23" d="M65.5,76L81,74c-0.4-2.7-1.4-5.3-3-7.4L65.5,76z"/>
	<path class="st24" d="M63.5,60.5l2,15.5l6.1-14.4c-1.9-0.8-3.9-1.2-6.1-1.2C64.8,60.3,64.1,60.4,63.5,60.5z"/>
	<path class="st25" d="M78,66.6c-1.6-2.2-3.8-3.9-6.4-5L65.5,76L78,66.6z"/>
	<path class="st26" d="M65.5,76l-3.9,9.2c-1.6-0.7-3.1-1.8-4.1-3.2L65.5,76z"/>
	<path class="st27" d="M71.6,84c-1.4,1.1-3.1,1.7-4.9,2L65.4,76L71.6,84L71.6,84z"/>
	<path class="st28" d="M75.6,76c0,1.4-0.3,2.7-0.7,3.9L65.5,76l10-1.2C75.5,75.1,75.6,75.6,75.6,76z"/>
	<path class="st29" d="M65.5,76l-8,6.1c-1-1.4-1.7-3-1.9-4.8L65.5,76L65.5,76z"/>
	<path class="st30" d="M66.7,86c-0.4,0.1-0.9,0.1-1.3,0.1c-1.4,0-2.7-0.3-3.9-0.8l3.9-9.2L66.7,86z"/>
	<path class="st31" d="M74.8,79.8c-0.7,1.6-1.7,3.1-3.1,4.1L65.6,76L74.8,79.8z"/>
	<path class="st32" d="M65.5,76l-10,1.2c-0.1-0.4-0.1-0.9-0.1-1.2c0-1.4,0.3-2.6,0.7-3.8L65.5,76L65.5,76z"/>
	<path class="st33" d="M65.5,76l-6.2-8c1.4-1.1,3.1-1.7,4.9-2L65.5,76z"/>
	<path class="st34" d="M65.5,76l-9.3-3.8c0.7-1.6,1.7-3.1,3.1-4.1L65.5,76z"/>
	<path class="st35" d="M75.4,74.7l-10,1.2l8.1-6.1C74.6,71.3,75.2,73,75.4,74.7L75.4,74.7z"/>
	<path class="st36" d="M69.4,66.7L65.5,76l-1.3-10c0.4-0.1,0.9-0.1,1.3-0.1C66.9,65.9,68.2,66.2,69.4,66.7L69.4,66.7z"/>
	<path class="st37" d="M73.5,69.9L65.4,76l3.9-9.2C71.1,67.4,72.4,68.5,73.5,69.9L73.5,69.9z"/>
	<path class="st38" d="M65.5,76l-1.7,4c-0.7-0.3-1.3-0.7-1.7-1.4L65.5,76z"/>
	<path class="st39" d="M68.1,79.5c-0.6,0.4-1.3,0.7-2.1,0.9L65.4,76L68.1,79.5z"/>
	<path class="st40" d="M69.9,76c0,0.6-0.1,1.1-0.3,1.7L65.5,76l4.3-0.6C69.8,75.6,69.9,75.8,69.9,76z"/>
	<path class="st38" d="M65.5,76L62,78.6c-0.4-0.6-0.7-1.3-0.9-2.1L65.5,76z"/>
	<path class="st41" d="M66.1,80.3c-0.2,0.1-0.4,0.1-0.6,0.1c-0.6,0-1.2-0.1-1.7-0.3l1.7-4L66.1,80.3z"/>
	<path class="st42" d="M69.5,77.6c-0.3,0.7-0.7,1.3-1.4,1.8L65.4,76L69.5,77.6z"/>
	<path class="st43" d="M65.5,76l-4.4,0.5c-0.1-0.2-0.1-0.4-0.1-0.6c0-0.6,0.1-1.1,0.3-1.7L65.5,76z"/>
	<path class="st44" d="M65.5,76l-2.7-3.4c0.6-0.4,1.3-0.7,2.1-0.9L65.5,76z"/>
	<path class="st43" d="M65.5,76l-4.1-1.7c0.3-0.7,0.7-1.3,1.4-1.8L65.5,76z"/>
	<path class="st45" d="M69.8,75.5L65.5,76l3.5-2.6C69.4,74,69.7,74.6,69.8,75.5L69.8,75.5z"/>
	<path class="st46" d="M67.2,72l-1.7,4l-0.6-4.3c0.2-0.1,0.4-0.1,0.6-0.1C66.1,71.6,66.7,71.8,67.2,72z"/>
	<path class="st47" d="M68.9,73.3L65.4,76l1.7-4C67.9,72.3,68.5,72.8,68.9,73.3z"/>
</g>
</svg>
