<?xml version="1.0" encoding="utf-8"?>
<!-- Generator: Adobe Illustrator 25.0.0, SVG Export Plug-In . SVG Version: 6.00 Build 0)  -->
<svg version="1.1" id="图层_1" xmlns="http://www.w3.org/2000/svg" xmlns:xlink="http://www.w3.org/1999/xlink" x="0px" y="0px"
	 viewBox="0 0 128 128" style="enable-background:new 0 0 128 128;" xml:space="preserve">
<style type="text/css">
	.st0{fill:#F03C2E;}
</style>
<path class="st0" d="M102.5,60.5l-34.9-35c-2-2-5.3-2-7.3,0l0,0l-7.2,7.2l9.2,9.2c2.1-0.8,4.6-0.3,6.3,1.5c1.7,1.7,2.2,4.1,1.5,6.3
	l8.9,8.9c2.2-0.8,4.6-0.3,6.3,1.5c2.4,2.4,2.4,6.3,0,8.6c-2.4,2.4-6.3,2.4-8.6,0c-1.8-1.8-2.2-4.5-1.3-6.7l-8.4-8.3v21.8
	c0.6,0.3,1.2,0.7,1.6,1.2c2.4,2.4,2.4,6.3,0,8.6c-2.4,2.4-6.3,2.4-8.6,0l0,0c-2.4-2.4-2.4-6.3,0-8.6l0,0c0.6-0.6,1.3-1,2-1.3v-22
	c-0.7-0.3-1.4-0.8-2-1.3c-1.8-1.7-2.3-4.4-1.3-6.7l-9-9L25.5,60.3c-2,2-2,5.3,0,7.3l0,0l35,35c2,2,5.3,2,7.3,0l0,0l34.8-34.7
	C104.5,65.7,104.5,62.5,102.5,60.5L102.5,60.5"/>
</svg>
