<?xml version="1.0" encoding="utf-8"?>
<!-- Generator: Adobe Illustrator 25.0.0, SVG Export Plug-In . SVG Version: 6.00 Build 0)  -->
<svg version="1.1" id="图层_1" xmlns="http://www.w3.org/2000/svg" xmlns:xlink="http://www.w3.org/1999/xlink" x="0px" y="0px"
	 viewBox="0 0 128 128" style="enable-background:new 0 0 128 128;" xml:space="preserve">
<style type="text/css">
	.st0{fill:#F03C2E;}
</style>
<path class="st0" d="M124.1,58.5L69.6,3.9c-3.1-3.1-8.2-3.1-11.4,0c0,0,0,0,0,0L46.9,15.2l14.4,14.4c3.3-1.2,7.2-0.4,9.8,2.3
	c2.6,2.6,3.5,6.4,2.3,9.9l13.9,13.9c3.4-1.2,7.2-0.4,9.9,2.3c3.7,3.7,3.7,9.8,0,13.5c-3.7,3.7-9.8,3.7-13.5,0
	c-2.8-2.8-3.5-7-2.1-10.4L68.5,48.1v34c0.9,0.5,1.8,1.1,2.5,1.8c3.7,3.7,3.7,9.8,0,13.5c-3.7,3.7-9.8,3.7-13.5,0l0,0
	c-3.7-3.7-3.7-9.8,0-13.5c0,0,0,0,0,0c0.9-0.9,2-1.6,3.1-2.1V47.5c-1.1-0.5-2.2-1.2-3.1-2.1c-2.8-2.7-3.6-6.9-2.1-10.5L41.3,20.8
	L3.9,58.2c-3.1,3.1-3.1,8.2,0,11.4c0,0,0,0,0,0l54.6,54.6c3.1,3.1,8.2,3.1,11.4,0c0,0,0,0,0,0l54.3-54.2
	C127.3,66.7,127.3,61.6,124.1,58.5C124.1,58.5,124.1,58.5,124.1,58.5"/>
</svg>
