<?xml version="1.0" encoding="utf-8"?>
<!-- Generator: Adobe Illustrator 25.0.0, SVG Export Plug-In . SVG Version: 6.00 Build 0)  -->
<svg version="1.1" id="图层_1" xmlns="http://www.w3.org/2000/svg" xmlns:xlink="http://www.w3.org/1999/xlink" x="0px" y="0px"
	 viewBox="0 0 128 128" style="enable-background:new 0 0 128 128;" xml:space="preserve">
<style type="text/css">
	.st0{fill:#E44F26;}
	.st1{fill:#F1662A;}
	.st2{fill:#EBEBEB;}
	.st3{fill:#FFFFFF;}
</style>
<g>
	<path class="st0" d="M31.2,100.3L24,18.7h80l-7.3,81.6l-32.8,9.1L31.2,100.3z"/>
	<path class="st1" d="M64,102.4L90.4,95l6.2-69.7H64V102.4L64,102.4z"/>
	<path class="st2" d="M64,55.6H50.7l-0.9-10.2H64V35.3H38.9l0.2,2.7l2.5,27.6H64V55.6L64,55.6z M64,81.6L64,81.6l-11.2-3l-0.7-8H42
		l1.4,15.7L63.9,92H64V81.6z"/>
	<path class="st3" d="M63.9,55.6v10h12.3l-1.1,13l-11.2,3V92l20.5-5.7l0.1-1.7l2.3-26.4l0.2-2.7C87.2,55.6,63.9,55.6,63.9,55.6z
		 M63.9,35.3v10h24.2l0.2-2.3l0.4-5.1l0.2-2.7C89,35.3,63.9,35.3,63.9,35.3z"/>
</g>
</svg>
