<?xml version="1.0" encoding="utf-8"?>
<!-- Generator: Adobe Illustrator 25.0.0, SVG Export Plug-In . SVG Version: 6.00 Build 0)  -->
<svg version="1.1" id="图层_1" xmlns="http://www.w3.org/2000/svg" xmlns:xlink="http://www.w3.org/1999/xlink" x="0px" y="0px"
	 viewBox="0 0 128 128" style="enable-background:new 0 0 128 128;" xml:space="preserve">
<style type="text/css">
	.st0{fill:#E44F26;}
	.st1{fill:#F1662A;}
	.st2{fill:#EBEBEB;}
	.st3{fill:#FFFFFF;}
</style>
<g>
	<path class="st0" d="M17.8,115.2L7.6,0h112.9l-10.3,115.2L63.9,128L17.8,115.2z"/>
	<path class="st1" d="M64,118.2l37.3-10.4l8.8-98.4H64V118.2L64,118.2z"/>
	<path class="st2" d="M64,52.1H45.3L44,37.7h20V23.5H28.6l0.3,3.8l3.5,38.9H64V52.1L64,52.1z M64,88.8L64,88.8l-15.8-4.2l-1-11.3H33
		l2,22.2l28.9,8l0.1,0C64,103.5,64,88.8,64,88.8z"/>
	<path class="st3" d="M63.9,52.1v14.1h17.4l-1.6,18.3l-15.8,4.3v14.7l29-8l0.2-2.4l3.3-37.2l0.3-3.8C96.8,52.1,63.9,52.1,63.9,52.1z
		 M63.9,23.5v14.1h34.1l0.3-3.2l0.6-7.2l0.3-3.8C99.3,23.5,63.9,23.5,63.9,23.5z"/>
</g>
</svg>
