<?xml version="1.0" encoding="utf-8"?>
<!-- Generator: Adobe Illustrator 25.0.0, SVG Export Plug-In . SVG Version: 6.00 Build 0)  -->
<svg version="1.1" id="图层_1" xmlns="http://www.w3.org/2000/svg" xmlns:xlink="http://www.w3.org/1999/xlink" x="0px" y="0px"
	 viewBox="0 0 128 128" style="enable-background:new 0 0 128 128;" xml:space="preserve">
<style type="text/css">
	.st0{fill:#0074BD;}
	.st1{fill:#EA2D2E;}
</style>
<g>
	<path class="st0" d="M49.8,93.6c0,0-4.1,2.4,3,3.2c8.6,1,13,0.8,22.5-0.9c0,0,2.5,1.6,6,2.9C59.9,107.9,33.1,98.3,49.8,93.6z
		 M47.2,81.8c0,0-4.6,3.4,2.5,4.2c9.2,0.9,16.4,1,29-1.4c0,0,1.7,1.8,4.5,2.7C57.4,94.8,28.8,87.9,47.2,81.8z"/>
	<path class="st1" d="M69,61.6c5.2,6-1.4,11.4-1.4,11.4s13.3-6.9,7.2-15.4c-5.7-8-10.1-12,13.6-25.7C88.4,31.9,51.3,41.2,69,61.6z"
		/>
	<path class="st0" d="M97.1,102.4c0,0,3.1,2.5-3.4,4.5c-12.3,3.7-51,4.8-61.8,0.1c-3.9-1.7,3.4-4,5.7-4.5c2.4-0.5,3.7-0.4,3.7-0.4
		c-4.3-3-27.8,6-11.9,8.5C72.7,117.7,108.4,107.5,97.1,102.4z M51.8,69.5c0,0-19.7,4.7-7,6.4c5.4,0.7,16.1,0.6,26.1-0.3
		c8.2-0.7,16.3-2.1,16.3-2.1s-2.9,1.2-5,2.7c-20,5.3-58.7,2.8-47.6-2.6C44.1,69,51.8,69.5,51.8,69.5z M87.1,89.2
		c20.4-10.6,10.9-20.7,4.4-19.4c-1.6,0.3-2.3,0.6-2.3,0.6s0.6-0.9,1.7-1.3c13-4.6,23,13.5-4.2,20.6C86.7,89.8,87,89.5,87.1,89.2z"/>
	<path class="st1" d="M74.9,9.8c0,0,11.3,11.3-10.7,28.6c-17.6,13.9-4,21.8,0,30.9c-10.3-9.3-17.8-17.4-12.8-25
		C58.8,33.1,79.4,27.7,74.9,9.8z"/>
	<path class="st0" d="M53.8,117.9c19.5,1.2,49.5-0.7,50.2-9.9c0,0-1.4,3.5-16.1,6.3c-16.7,3.1-37.2,2.8-49.4,0.8
		C38.4,115,40.9,117.1,53.8,117.9z"/>
</g>
</svg>
