<?xml version="1.0" encoding="utf-8"?>
<!-- Generator: Adobe Illustrator 25.0.0, SVG Export Plug-In . SVG Version: 6.00 Build 0)  -->
<svg version="1.1" id="图层_1" xmlns="http://www.w3.org/2000/svg" xmlns:xlink="http://www.w3.org/1999/xlink" x="0px" y="0px"
	 viewBox="0 0 128 128" style="enable-background:new 0 0 128 128;" xml:space="preserve">
<style type="text/css">
	.st0{fill:#00618A;}
	.st1{fill:#E48E00;}
</style>
<g>
	<path class="st0" d="M24,81.1h2.7V70.6l4.1,9.1c0.5,1.1,1.1,1.5,2.4,1.5s1.9-0.4,2.4-1.5l4.1-9.1v10.5h2.7V70.6
		c0-1-0.4-1.5-1.2-1.8c-2-0.6-3.4-0.1-4,1.3l-4,9l-3.9-9c-0.6-1.4-2-1.9-4-1.3c-0.8,0.3-1.2,0.7-1.2,1.8L24,81.1L24,81.1z
		 M44.6,72.6h2.6v5.8c0,0.3,0.1,1,1.6,1.1c0.7,0,5.7,0,5.8,0v-6.9h2.7c0,0,0,9.4,0,9.4c0,2.3-2.9,2.8-4.2,2.8h-8.4V83
		c0,0,8.4,0,8.4,0c1.7-0.2,1.5-1,1.5-1.3V81h-5.6c-2.6,0-4.3-1.2-4.3-2.5C44.6,78.4,44.6,72.6,44.6,72.6z"/>
	<path class="st1" d="M59.2,81.1h7.6c0.9,0,1.8-0.2,2.4-0.5c1.1-0.5,1.7-1.2,1.7-2.2v-1.9c0-0.8-0.6-1.5-1.9-2
		c-0.7-0.3-1.5-0.4-2.3-0.4h-3.2c-1.1,0-1.6-0.3-1.7-1c0-0.1,0-0.2,0-0.2v-1.2c0-0.1,0-0.1,0-0.2c0.1-0.5,0.4-0.7,1.4-0.8l0.3,0h7.6
		v-1.8h-7.4c-1.1,0-1.6,0.1-2.1,0.2c-1.6,0.5-2.3,1.3-2.3,2.6v1.5c0,1.2,1.4,2.2,3.6,2.4c0.3,0,0.5,0,0.8,0h2.8c0.1,0,0.2,0,0.3,0
		c0.8,0.1,1.2,0.2,1.5,0.5c0.2,0.2,0.2,0.3,0.2,0.5v1.5c0,0.2-0.1,0.4-0.4,0.6c-0.2,0.2-0.6,0.3-1.1,0.4l-0.3,0h-7.3
		C59.2,79.3,59.2,81.1,59.2,81.1z M87.6,78c0,1.8,1.4,2.8,4.1,3c0.3,0,0.5,0,0.8,0h6.9v-1.8h-7c-1.6,0-2.1-0.4-2.1-1.3v-9.1h-2.7
		L87.6,78L87.6,78z M72.7,78.1v-6.3c0-1.6,1.1-2.6,3.3-2.9c0.2,0,0.5-0.1,0.7-0.1h5c0.3,0,0.5,0,0.7,0.1c2.2,0.3,3.3,1.3,3.3,2.9
		v6.3c0,1.3-0.5,2-1.6,2.4l2.6,2.4h-3.1L81.7,81l-2.1,0.1h-2.8c-0.5,0-1-0.1-1.6-0.2C73.5,80.4,72.7,79.6,72.7,78.1z M75.6,77.9
		c0,0.1,0,0.2,0.1,0.3c0.2,0.7,0.8,1.1,1.9,1.1h2.4l-2.2-2h3.1l1.9,1.7c0.4-0.2,0.6-0.5,0.7-0.9c0-0.1,0-0.2,0-0.3v-6
		c0-0.1,0-0.2,0-0.2c-0.2-0.7-0.8-1.1-1.9-1.1h-4c-1.2,0-1.9,0.5-1.9,1.3L75.6,77.9L75.6,77.9z"/>
	<path class="st0" d="M101.6,65.9c-1.6,0-2.9,0.1-3.9,0.6c-0.3,0.1-0.8,0.1-0.8,0.5c0.2,0.2,0.2,0.4,0.3,0.6c0.3,0.4,0.7,1,1.1,1.3
		c0.4,0.3,0.8,0.7,1.3,0.9c0.8,0.5,1.7,0.8,2.5,1.3c0.5,0.3,0.9,0.6,1.3,1c0.2,0.2,0.4,0.4,0.6,0.5v0c-0.1-0.2-0.2-0.5-0.3-0.6
		l-0.6-0.6c-0.6-0.8-1.3-1.5-2.1-2c-0.6-0.5-2.1-1.1-2.3-1.8l0,0c0.4-0.1,1-0.2,1.4-0.3c0.7-0.2,1.3-0.1,2-0.3l1-0.3v-0.2
		c-0.4-0.4-0.6-0.9-1-1.2c-1-0.9-2.2-1.8-3.3-2.5c-0.6-0.4-1.4-0.7-2.1-1c-0.2-0.1-0.6-0.2-0.8-0.4c-0.4-0.5-0.6-1-0.8-1.6
		c-0.6-1.1-1.2-2.3-1.7-3.5c-0.4-0.8-0.6-1.6-1-2.3c-2.1-3.5-4.4-5.5-7.9-7.6c-0.7-0.4-1.6-0.6-2.6-0.8l-1.5-0.1
		c-0.3-0.1-0.6-0.5-0.9-0.7c-1.2-0.7-4.1-2.3-5-0.2c-0.5,1.3,0.8,2.6,1.3,3.3c0.3,0.5,0.8,1,1,1.5c0.2,0.3,0.2,0.7,0.3,1.1
		c0.3,0.9,0.6,1.9,1.1,2.7c0.2,0.4,0.5,0.9,0.7,1.3c0.2,0.2,0.5,0.3,0.5,0.7c-0.3,0.4-0.3,1-0.5,1.5c-0.7,2.3-0.5,5.1,0.6,6.8
		c0.3,0.5,1.1,1.6,2.1,1.2c0.9-0.4,0.7-1.5,1-2.5c0.1-0.2,0-0.4,0.1-0.6v0l0.8,1.7c0.6,1,1.7,2,2.6,2.7c0.5,0.4,0.9,1,1.5,1.2v0h0
		c-0.1-0.2-0.3-0.3-0.5-0.4c-0.4-0.4-0.8-0.8-1.1-1.2c-0.8-1.1-1.6-2.4-2.3-3.7c-0.3-0.6-0.6-1.3-0.9-1.9c-0.1-0.2-0.1-0.6-0.3-0.7
		c-0.3,0.5-0.7,0.8-1,1.4c-0.4,0.9-0.4,1.9-0.6,3.1l-0.1,0c-0.6-0.2-0.9-0.8-1.1-1.4c-0.6-1.4-0.7-3.8-0.2-5.4
		c0.1-0.4,0.8-1.8,0.5-2.2c-0.1-0.4-0.5-0.6-0.7-0.9c-0.3-0.4-0.6-0.9-0.7-1.3c-0.5-1.1-0.7-2.4-1.3-3.5c-0.3-0.5-0.7-1.1-1-1.6
		c-0.4-0.5-0.8-0.9-1.1-1.6c-0.1-0.2-0.2-0.6-0.1-0.8c0-0.2,0.1-0.2,0.3-0.3c0.3-0.2,1,0.1,1.3,0.2c0.7,0.3,1.4,0.6,2,1
		c0.3,0.2,0.6,0.6,1,0.7h0.4c0.7,0.1,1.4,0,2,0.2c1.1,0.3,2,0.8,2.9,1.4c2.7,1.7,4.9,4.1,6.3,6.9c0.2,0.5,0.3,0.9,0.6,1.4
		c0.4,1,1,2,1.4,3c0.4,1,0.8,1.9,1.4,2.7c0.3,0.4,1.5,0.6,2.1,0.9c0.4,0.2,1,0.3,1.4,0.6c0.7,0.4,1.4,0.9,2,1.4
		C100.6,65,101.6,65.5,101.6,65.9z M80.9,48.3c-0.3,0-0.6,0-0.8,0.1v0h0c0.2,0.3,0.4,0.5,0.6,0.8l0.5,1l0,0c0.3-0.2,0.4-0.5,0.4-1
		c-0.1-0.1-0.1-0.3-0.2-0.4C81.4,48.5,81.1,48.4,80.9,48.3z"/>
</g>
</svg>
