<?xml version="1.0" encoding="utf-8"?>
<!-- Generator: Adobe Illustrator 25.0.0, SVG Export Plug-In . SVG Version: 6.00 Build 0)  -->
<svg version="1.1" id="图层_1" xmlns="http://www.w3.org/2000/svg" xmlns:xlink="http://www.w3.org/1999/xlink" x="0px" y="0px"
	 viewBox="0 0 128 128" style="enable-background:new 0 0 128 128;" xml:space="preserve">
<style type="text/css">
	.st0{fill:#83CD29;}
	.st1{fill:#404137;}
</style>
<g>
	<path class="st0" d="M97.6,75.2c-0.2,0-0.4-0.1-0.6-0.1l-1.8-1c-0.3-0.1-0.1-0.2,0-0.2c0.4-0.1,0.4-0.2,0.8-0.4c0,0,0.1,0,0.1,0
		l1.4,0.8c0,0,0.1,0,0.2,0l5.3-3.1c0.1,0,0.1-0.1,0.1-0.1v-6.1c0-0.1,0-0.1-0.1-0.1l-5.3-3.1c0,0-0.1,0-0.2,0l-5.3,3.1
		c-0.1,0-0.1,0.1-0.1,0.1V71c0,0.1,0,0.1,0.1,0.1l1.5,0.8c0.8,0.4,1.3-0.1,1.3-0.5v-6c0-0.1,0.1-0.2,0.2-0.2h0.7
		c0.1,0,0.2,0.1,0.2,0.2v6c0,1.1-0.6,1.7-1.6,1.7c-0.3,0-0.5,0-1.2-0.3L91.7,72c-0.3-0.2-0.6-0.6-0.6-1v-6.1c0-0.4,0.2-0.8,0.6-1
		l5.3-3.1c0.3-0.2,0.8-0.2,1.1,0l5.3,3.1c0.3,0.2,0.6,0.6,0.6,1V71c0,0.4-0.2,0.8-0.6,1L98.1,75C98,75.1,97.8,75.2,97.6,75.2
		 M99.2,71c-2.3,0-2.8-1.1-2.8-2c0-0.1,0.1-0.2,0.2-0.2h0.7c0.1,0,0.1,0.1,0.2,0.1c0.1,0.7,0.4,1,1.8,1c1.1,0,1.6-0.3,1.6-0.8
		c0-0.3-0.1-0.6-1.9-0.8c-1.4-0.1-2.3-0.5-2.3-1.6c0-1.1,0.9-1.7,2.4-1.7c1.7,0,2.5,0.6,2.6,1.9c0,0,0,0.1,0,0.1c0,0-0.1,0-0.1,0
		h-0.7c-0.1,0-0.1-0.1-0.1-0.1c-0.2-0.7-0.6-1-1.7-1c-1.2,0-1.4,0.4-1.4,0.7c0,0.4,0.2,0.5,1.8,0.7c1.6,0.2,2.4,0.5,2.4,1.7
		C101.9,70.3,100.9,71,99.2,71"/>
	<path class="st1" d="M86.7,67c0.2-0.1,0.3-0.3,0.3-0.6v-1.6c0-0.2-0.1-0.5-0.3-0.6L81.1,61c-0.2-0.1-0.5-0.1-0.7,0l-5.6,3.2
		c-0.2,0.1-0.3,0.3-0.3,0.6v6.5c0,0.2,0.1,0.5,0.3,0.6l5.6,3.2c0.2,0.1,0.5,0.1,0.7,0l3.4-1.9c0.1-0.1,0.2-0.2,0.2-0.3
		c0-0.1-0.1-0.2-0.2-0.3l-5.7-3.2c-0.1-0.1-0.2-0.2-0.2-0.3v-2c0-0.1,0.1-0.2,0.2-0.3l1.8-1c0.1-0.1,0.2-0.1,0.3,0l1.8,1
		c0.1,0.1,0.2,0.2,0.2,0.3v1.6c0,0.1,0.1,0.2,0.2,0.3c0.1,0.1,0.2,0.1,0.3,0L86.7,67"/>
	<path class="st0" d="M80.7,66.7c0,0,0.1,0,0.1,0l1.1,0.6c0,0,0.1,0.1,0.1,0.1v1.2c0,0,0,0.1-0.1,0.1l-1.1,0.6c0,0-0.1,0-0.1,0
		l-1.1-0.6c0,0-0.1-0.1-0.1-0.1v-1.2c0,0,0-0.1,0.1-0.1L80.7,66.7"/>
	<path class="st1" d="M66.1,69.2c0,0.1,0,0.1-0.1,0.1L64,70.5c-0.1,0-0.1,0-0.2,0l-1.9-1.1c-0.1,0-0.1-0.1-0.1-0.1V67
		c0-0.1,0-0.1,0.1-0.1l1.9-1.1c0.1,0,0.1,0,0.2,0l1.9,1.1c0.1,0,0.1,0.1,0.1,0.1L66.1,69.2L66.1,69.2z M66.6,52.7
		c-0.1-0.1-0.2-0.1-0.3,0c-0.1,0.1-0.2,0.2-0.2,0.3v8.6c0,0.1,0,0.2-0.1,0.2c-0.1,0-0.2,0-0.2,0l-1.4-0.8c-0.2-0.1-0.5-0.1-0.7,0
		L58,64.3c-0.2,0.1-0.3,0.3-0.3,0.6v6.5c0,0.2,0.1,0.5,0.3,0.6l5.6,3.2c0.2,0.1,0.5,0.1,0.7,0l5.6-3.2c0.2-0.1,0.3-0.3,0.3-0.6V55.2
		c0-0.2-0.1-0.5-0.3-0.6L66.6,52.7"/>
	<path class="st0" d="M46.8,60.9c0.2-0.1,0.5-0.1,0.7,0l5.6,3.2c0.2,0.1,0.3,0.3,0.3,0.6v6.5c0,0.2-0.1,0.5-0.3,0.6l-5.6,3.2
		c-0.2,0.1-0.5,0.1-0.7,0l-5.6-3.2c-0.2-0.1-0.3-0.3-0.3-0.6v-6.5c0-0.2,0.1-0.5,0.3-0.6L46.8,60.9"/>
	<path class="st1" d="M36.6,64.7c0-0.2-0.1-0.5-0.3-0.6l-5.6-3.2c-0.1-0.1-0.2-0.1-0.3-0.1h-0.1c-0.1,0-0.2,0-0.3,0.1l-5.6,3.2
		c-0.2,0.1-0.3,0.3-0.3,0.6l0,8.7c0,0.1,0.1,0.2,0.2,0.3c0.1,0.1,0.2,0.1,0.3,0l3.3-1.9c0.2-0.1,0.3-0.3,0.3-0.6v-4.1
		c0-0.2,0.1-0.5,0.3-0.6l1.4-0.8c0.1-0.1,0.2-0.1,0.3-0.1c0.1,0,0.2,0,0.3,0.1l1.4,0.8c0.2,0.1,0.3,0.3,0.3,0.6v4.1
		c0,0.2,0.1,0.5,0.3,0.6l3.3,1.9c0.1,0.1,0.2,0.1,0.3,0c0.1-0.1,0.2-0.2,0.2-0.3L36.6,64.7"/>
</g>
</svg>
