<?xml version="1.0" encoding="utf-8"?>
<!-- Generator: Adobe Illustrator 25.0.0, SVG Export Plug-In . SVG Version: 6.00 Build 0)  -->
<svg version="1.1" id="图层_1" xmlns="http://www.w3.org/2000/svg" xmlns:xlink="http://www.w3.org/1999/xlink" x="0px" y="0px"
	 viewBox="0 0 128 128" style="enable-background:new 0 0 128 128;" xml:space="preserve">
<style type="text/css">
	.st0{clip-path:url(#SVGID_5_);}
	.st1{clip-path:url(#SVGID_6_);}
	.st2{clip-path:url(#SVGID_8_);}
	.st3{fill:#6181B6;}
	.st4{fill:#FFFFFF;}
	.st5{fill:#000004;}
</style>
<g>
	<g>
		<defs>
			<path id="SVGID_1_" d="M64,85c22.1,0,40-9.4,40-21S86.1,43,64,43s-40,9.4-40,21S41.9,85,64,85"/>
		</defs>
		<clipPath id="SVGID_2_">
			<use xlink:href="#SVGID_1_"  style="overflow:visible;"/>
		</clipPath>
	</g>
	<g>
		<defs>
			<path id="SVGID_3_" d="M64,85c22.1,0,40-9.4,40-21S86.1,43,64,43s-40,9.4-40,21S41.9,85,64,85"/>
		</defs>
		<defs>
			<rect id="SVGID_4_" x="24" y="43" width="80" height="42"/>
		</defs>
		<clipPath id="SVGID_5_">
			<use xlink:href="#SVGID_3_"  style="overflow:visible;"/>
		</clipPath>
		<clipPath id="SVGID_6_" class="st0">
			<use xlink:href="#SVGID_4_"  style="overflow:visible;"/>
		</clipPath>
		<g class="st1">
			<g>
				<defs>
					<rect id="SVGID_7_" x="24" y="43" width="80" height="42"/>
				</defs>
				<clipPath id="SVGID_8_">
					<use xlink:href="#SVGID_7_"  style="overflow:visible;"/>
				</clipPath>
				<g class="st2">
					
						<image style="overflow:visible;enable-background:new    ;" width="1171" height="614" xlink:href="1F585E82EB99EB7E.jpeg"  transform="matrix(6.885300e-02 0 0 -6.885300e-02 23.8866 85.0664)">
					</image>
				</g>
			</g>
		</g>
	</g>
	<path class="st3" d="M64,83.5c21.2,0,38.4-8.7,38.4-19.5S85.2,44.5,64,44.5S25.6,53.2,25.6,64S42.8,83.5,64,83.5z"/>
	<path class="st4" d="M71.8,70.3l1.9-9.8c0.4-2.2,0.1-3.9-1.1-4.9c-1.1-1-3-1.5-5.7-1.5h-3.3l0.9-4.9c0-0.2,0-0.4-0.1-0.5
		c-0.1-0.1-0.3-0.2-0.5-0.2h-4.6c-0.3,0-0.6,0.2-0.6,0.5l-2,10.4c-0.2-1.2-0.6-2.2-1.4-3c-1.3-1.5-3.4-2.3-6.3-2.3h-8.8
		c-0.3,0-0.6,0.2-0.6,0.5l-4.1,21.1c0,0.2,0,0.4,0.1,0.5c0.1,0.1,0.3,0.2,0.5,0.2h4.6c0.3,0,0.6-0.2,0.6-0.5l1-5.1h3.4
		c1.8,0,3.3-0.2,4.5-0.6c1.2-0.4,2.3-1.1,3.3-2c0.8-0.7,1.4-1.5,1.9-2.4l-0.8,4.2c0,0.2,0,0.4,0.1,0.5c0.1,0.1,0.3,0.2,0.5,0.2h4.6
		c0.3,0,0.6-0.2,0.6-0.5l2.2-11.6h3.1c1.3,0,1.7,0.3,1.8,0.4c0.1,0.1,0.3,0.5,0.1,1.6l-1.8,9.3c0,0.2,0,0.4,0.1,0.5
		c0.1,0.1,0.3,0.2,0.5,0.2h4.6C71.5,70.8,71.7,70.6,71.8,70.3z M50.7,62.2c-0.3,1.5-0.8,2.5-1.6,3.1c-0.8,0.6-2.1,0.9-3.8,0.9h-2
		l1.5-7.6h2.6c1.9,0,2.7,0.4,3,0.8C50.8,59.9,50.9,60.9,50.7,62.2z M91.3,56.4c-1.3-1.5-3.4-2.3-6.3-2.3h-8.8
		c-0.3,0-0.6,0.2-0.6,0.5l-4.1,21.1c0,0.2,0,0.4,0.1,0.5c0.1,0.1,0.3,0.2,0.5,0.2h4.6c0.3,0,0.6-0.2,0.6-0.5l1-5.1h3.4
		c1.8,0,3.3-0.2,4.5-0.6c1.2-0.4,2.3-1.1,3.3-2c0.8-0.7,1.5-1.6,2-2.5c0.5-0.9,0.9-1.9,1.1-3C93,60.1,92.6,57.9,91.3,56.4z
		 M86.5,62.2c-0.3,1.5-0.8,2.5-1.6,3.1c-0.8,0.6-2.1,0.9-3.8,0.9h-2l1.5-7.6h2.6c1.9,0,2.7,0.4,3,0.8C86.7,59.9,86.8,60.9,86.5,62.2
		z"/>
	<path class="st5" d="M47.4,58c1.7,0,2.9,0.3,3.5,1c0.6,0.6,0.7,1.7,0.4,3.3c-0.3,1.6-0.9,2.8-1.8,3.5c-0.9,0.7-2.3,1-4.1,1h-2.8
		l1.7-8.8L47.4,58C47.4,58,47.4,58,47.4,58z M36.2,75.8h4.6l1.1-5.6h3.9c1.7,0,3.2-0.2,4.3-0.5c1.1-0.4,2.1-1,3.1-1.8
		c0.8-0.7,1.4-1.5,1.9-2.3c0.5-0.9,0.8-1.8,1-2.8c0.5-2.5,0.1-4.4-1.1-5.8c-1.2-1.4-3.2-2.1-5.8-2.1h-8.8
		C40.3,54.7,36.2,75.8,36.2,75.8z M59.4,49.1H64l-1.1,5.6h4.1c2.6,0,4.3,0.4,5.3,1.3c1,0.9,1.3,2.3,0.9,4.3l-1.9,9.8h-4.6l1.8-9.3
		c0.2-1.1,0.1-1.8-0.2-2.2c-0.4-0.4-1.1-0.6-2.3-0.6h-3.6l-2.3,12.1h-4.6C55.3,70.2,59.4,49.1,59.4,49.1z M83.2,58
		c1.7,0,2.9,0.3,3.5,1c0.6,0.6,0.7,1.7,0.4,3.3c-0.3,1.6-0.9,2.8-1.8,3.5c-0.9,0.7-2.3,1-4.1,1h-2.8l1.7-8.8L83.2,58
		C83.2,58,83.2,58,83.2,58z M72,75.8h4.6l1.1-5.6h3.9c1.7,0,3.2-0.2,4.3-0.5c1.1-0.4,2.1-1,3.1-1.8c0.8-0.7,1.4-1.5,1.9-2.3
		c0.5-0.9,0.8-1.8,1-2.8c0.5-2.5,0.1-4.4-1.1-5.8c-1.2-1.4-3.2-2.1-5.8-2.1h-8.8C76.1,54.7,72,75.8,72,75.8z"/>
</g>
</svg>
