<?xml version="1.0" encoding="utf-8"?>
<!-- Generator: Adobe Illustrator 25.0.0, SVG Export Plug-In . SVG Version: 6.00 Build 0)  -->
<svg version="1.1" id="图层_1" xmlns="http://www.w3.org/2000/svg" xmlns:xlink="http://www.w3.org/1999/xlink" x="0px" y="0px"
	 viewBox="0 0 128 128" style="enable-background:new 0 0 128 128;" xml:space="preserve">
<style type="text/css">
	.st0{fill:url(#SVGID_1_);}
	.st1{fill:url(#SVGID_2_);}
	.st2{fill:url(#SVGID_3_);enable-background:new    ;}
</style>
<g>
	
		<linearGradient id="SVGID_1_" gradientUnits="userSpaceOnUse" x1="213.7912" y1="-596.7075" x2="314.1982" y2="-510.3205" gradientTransform="matrix(0.563 0 0 0.568 -110.06 343.897)">
		<stop  offset="0" style="stop-color:#5A9FD4"/>
		<stop  offset="1" style="stop-color:#306998"/>
	</linearGradient>
	<path class="st0" d="M63.4,2c-4.2,0-8.3,0.4-11.8,1C41.1,4.8,39.2,8.7,39.2,15.8v9.4h24.7v3.1H30c-7.2,0-13.5,4.3-15.4,12.5
		c-2.3,9.4-2.4,15.3,0,25.1c1.8,7.3,5.9,12.5,13.1,12.5h8.5V67.2c0-8.2,7.1-15.3,15.4-15.3h24.7c6.9,0,12.3-5.7,12.3-12.5V15.8
		C88.6,9.1,83,4.1,76.3,3C72,2.3,67.6,2,63.4,2z M50,9.6c2.5,0,4.6,2.1,4.6,4.7c0,2.6-2.1,4.7-4.6,4.7c-2.6,0-4.6-2.1-4.6-4.7
		C45.4,11.7,47.5,9.6,50,9.6z"/>
	
		<linearGradient id="SVGID_2_" gradientUnits="userSpaceOnUse" x1="352.9604" y1="-458.0305" x2="317.1064" y2="-508.7564" gradientTransform="matrix(0.563 0 0 0.568 -110.06 343.897)">
		<stop  offset="0" style="stop-color:#FFD43B"/>
		<stop  offset="1" style="stop-color:#FFE873"/>
	</linearGradient>
	<path class="st1" d="M91.7,28.4v11c0,8.5-7.2,15.7-15.4,15.7H51.6c-6.8,0-12.3,5.8-12.3,12.5v23.5c0,6.7,5.8,10.6,12.3,12.5
		c7.8,2.3,15.3,2.7,24.7,0c6.2-1.8,12.3-5.4,12.3-12.5v-9.4H63.9v-3.1h37c7.2,0,9.9-5,12.3-12.5c2.6-7.7,2.5-15.2,0-25.1
		c-1.8-7.1-5.2-12.5-12.3-12.5L91.7,28.4L91.7,28.4z M77.8,87.9c2.6,0,4.6,2.1,4.6,4.7c0,2.6-2.1,4.7-4.6,4.7
		c-2.6,0-4.6-2.1-4.6-4.7C73.2,90,75.3,87.9,77.8,87.9z"/>
	
		<radialGradient id="SVGID_3_" cx="869.845" cy="45.9043" r="26.743" gradientTransform="matrix(0 -0.24 1.055 0 15.654 328.176)" gradientUnits="userSpaceOnUse">
		<stop  offset="0" style="stop-color:#B8B8B8;stop-opacity:0.498"/>
		<stop  offset="1" style="stop-color:#7F7F7F;stop-opacity:0"/>
	</radialGradient>
	<path class="st2" d="M97.3,119.6c0,3.5-14.8,6.4-33.1,6.4c-18.3,0-33.1-2.9-33.1-6.4c0-3.5,14.8-6.4,33.1-6.4
		C82.5,113.2,97.3,116.1,97.3,119.6z"/>
</g>
</svg>
