<?xml version="1.0" encoding="utf-8"?>
<!-- Generator: Adobe Illustrator 25.0.0, SVG Export Plug-In . SVG Version: 6.00 Build 0)  -->
<svg version="1.1" id="图层_1" xmlns="http://www.w3.org/2000/svg" xmlns:xlink="http://www.w3.org/1999/xlink" x="0px" y="0px"
	 viewBox="0 0 128 128" style="enable-background:new 0 0 128 128;" xml:space="preserve">
<style type="text/css">
	.st0{fill:#61DAFB;}
</style>
<g>
	<circle class="st0" cx="64" cy="50.9" r="7.3"/>
	<path class="st0" d="M64,77.8c5.7,5.6,11.4,8.9,16,8.9c1.5,0,2.9-0.3,4.1-1c4.1-2.4,5.6-8.3,4.2-16.7c-0.2-1.5-0.6-3-0.9-4.6
		c1.6-0.5,3-0.9,4.4-1.4C99.6,59.9,104,55.7,104,51c0-4.7-4.4-9-12.3-11.9c-1.4-0.6-2.8-1-4.4-1.4c0.4-1.6,0.7-3.1,0.9-4.6
		c1.3-8.6-0.2-14.5-4.2-16.9c-1.2-0.7-2.6-1-4.1-1c-4.5,0-10.2,3.3-16,8.9c-5.7-5.6-11.3-8.9-15.9-8.9c-1.5,0-2.9,0.3-4.1,1
		c-4.1,2.4-5.6,8.3-4.2,16.7c0.2,1.5,0.6,3,0.9,4.6c-1.6,0.5-3,0.9-4.4,1.4C28.4,41.9,24,46.2,24,50.8c0,4.7,4.4,9,12.3,11.9
		c1.4,0.6,2.8,1,4.4,1.4c-0.4,1.6-0.7,3.1-0.9,4.6C38.5,77.1,40,83.1,44,85.4c1.2,0.7,2.6,1,4.1,1C52.6,86.6,58.3,83.3,64,77.8
		L64,77.8z M59.6,67.2c1.4,0.1,2.9,0.1,4.4,0.1c1.5,0,3,0,4.4-0.1C67,69,65.5,70.8,64,72.4C62.5,70.8,61,69,59.6,67.2z M49.9,59.1
		c0.8,1.3,1.5,2.6,2.4,3.9c-2.4-0.3-4.7-0.7-6.9-1.2c0.7-2.1,1.5-4.3,2.4-6.5C48.4,56.5,49.1,57.8,49.9,59.1z M45.3,40.1
		c2.2-0.5,4.5-0.9,6.9-1.2c-0.8,1.3-1.6,2.5-2.4,3.9c-0.8,1.3-1.5,2.6-2.1,3.9C46.7,44.4,45.9,42.2,45.3,40.1z M49.6,50.9
		c1-2.1,2.1-4.2,3.4-6.4c1.2-2,2.5-4.1,3.9-6.1c2.4-0.2,4.7-0.2,7.2-0.2c2.5,0,4.9,0.1,7.2,0.2c1.4,2,2.7,4.1,3.9,6.1
		c1.3,2.1,2.4,4.2,3.4,6.4c-1,2.1-2.1,4.2-3.4,6.4c-1.2,2-2.5,4.1-3.9,6.1c-2.4,0.2-4.7,0.2-7.2,0.2c-2.5,0-4.9-0.1-7.2-0.2
		c-1.4-2-2.7-4.1-3.9-6.1C51.7,55.1,50.6,53,49.6,50.9z M80.3,46.6l-2.1-3.9c-0.8-1.3-1.5-2.6-2.4-3.9c2.4,0.3,4.7,0.7,6.9,1.2
		C82.1,42.2,81.3,44.4,80.3,46.6z M80.3,55.1c0.9,2.2,1.7,4.4,2.4,6.5c-2.2,0.5-4.5,0.9-6.9,1.2c0.8-1.3,1.6-2.5,2.4-3.9
		C78.9,57.8,79.6,56.5,80.3,55.1z M82.2,82.4c-0.6,0.4-1.4,0.6-2.3,0.6c-3.9,0-8.6-3.1-13.4-7.9c2.3-2.4,4.5-5.2,6.7-8.3
		c3.7-0.3,7.2-0.9,10.5-1.7c0.4,1.4,0.6,2.8,0.9,4.2C85.7,76.1,84.8,80.9,82.2,82.4z M86.2,41c8.8,2.5,14.1,6.4,14.1,9.9
		c0,3.1-3.6,6.1-10,8.6c-1.3,0.5-2.7,0.9-4.1,1.3c-1-3.2-2.3-6.5-3.9-9.9C84,47.5,85.3,44.2,86.2,41z M80,18.8
		c0.9,0,1.6,0.2,2.3,0.6c2.6,1.5,3.5,6.2,2.4,13c-0.2,1.3-0.6,2.8-0.9,4.2c-3.3-0.7-6.8-1.3-10.5-1.7c-2.1-3.1-4.4-5.8-6.7-8.3
		C71.3,22,76.1,18.8,80,18.8z M68.4,34.6c-1.4-0.1-2.9-0.1-4.4-0.1c-1.5,0-3,0-4.4,0.1c1.4-1.9,2.9-3.6,4.4-5.3
		C65.5,31,67,32.8,68.4,34.6z M45.8,19.4c0.6-0.4,1.4-0.6,2.3-0.6c3.9,0,8.6,3.1,13.4,7.9c-2.3,2.4-4.5,5.2-6.7,8.3
		c-3.7,0.3-7.2,0.9-10.5,1.7c-0.4-1.4-0.6-2.8-0.9-4.2C42.3,25.7,43.2,20.9,45.8,19.4z M41.8,60.8c-8.8-2.5-14.1-6.4-14.1-9.9
		c0-3.1,3.6-6.1,10-8.6c1.3-0.5,2.7-0.9,4.1-1.3c1,3.2,2.3,6.5,3.9,9.9C44,54.3,42.7,57.6,41.8,60.8z M43.4,69.4
		c0.2-1.3,0.6-2.8,0.9-4.2c3.3,0.7,6.8,1.3,10.5,1.7c2.1,3.1,4.4,5.8,6.7,8.3C56.8,79.7,52,83,48.1,83c-0.9,0-1.6-0.2-2.3-0.6
		C43.2,80.9,42.3,76.1,43.4,69.4z M40.1,101.8c1.7-2.1,1.8-4.5,0.9-6.8c-0.9-2.4-2.9-3.5-5.3-3.5c-2.9-0.1-5.9,0-8.8,0h-0.6v20.4
		h2.4v-7.7h3.7c0.5,0,0.9,0.2,1.1,0.6l4.7,7.3c0.1,0.2,0.3,0.4,0.5,0.4h3.1c-1.9-2.9-3.7-5.7-5.6-8.5
		C37.8,103.6,39.2,103.1,40.1,101.8z M28.6,101.7v-7.8h0.9c1.8,0,3.7-0.1,5.5,0.1c2.1,0.1,3.6,1.7,3.6,3.9s-1.7,3.8-3.9,3.9
		C32.9,101.7,31,101.7,28.6,101.7z M59,102.7c-1.3-5.5-6.3-6.9-10.1-5.2c-3,1.3-4.3,3.9-4.4,7.2c-0.1,2.4,0.6,4.6,2.5,6.3
		c2.1,1.9,4.7,2.1,7.4,1.7c1.5-0.3,2.8-1,3.9-2.1c-0.4-0.6-0.8-1.1-1.2-1.6c-2.2,1.9-4.6,2.5-7.3,1.3c-1.7-0.9-2.6-3-2.8-4.6h12.2
		v-1C59.3,103.9,59.2,103.2,59,102.7z M47.2,103.9c-0.2-2.4,2.1-4.9,4.7-4.9c3-0.1,4.9,1.7,5,4.9H47.2z M71.3,97.1
		c-1.2-0.2-2.4-0.3-3.6-0.2c-1.9,0.2-3.5,1-4.9,2.4c0.4,0.6,0.7,1.1,1.2,1.7c0.2-0.2,0.3-0.3,0.5-0.4c1.3-1.2,2.8-1.8,4.6-1.7
		c1.4,0.1,2.8,0.6,3.1,2c0.3,1.1,0.2,2.3,0.3,3.5c-0.2,0-0.3-0.1-0.4-0.2c-1.9-1.6-4-1.9-6.3-1.3c-2.1,0.6-3.5,2.2-3.6,4.3
		c-0.2,2.4,0.9,4.2,3.1,5.1c1.3,0.6,2.8,0.6,4.2,0.2c1.1-0.2,1.6-0.9,3.1-1.7v1h2.2c0-3.1,0.1-7,0-10.6C74.8,99,73.5,97.6,71.3,97.1
		z M72.4,107c-0.1,0.2,0,0.5,0,0.7c0,1.7-0.4,2.2-2,2.8c-1.1,0.4-2.3,0.6-3.5,0.2c-1.3-0.4-2.3-1.6-2.3-2.9
		c-0.1-1.3,0.8-2.7,2.1-3.1c1.8-0.6,3.5-0.2,5,0.9C72.3,106,72.6,106.4,72.4,107z M84.7,99.2c2-0.6,3.9-0.2,5.3,1.5l0.2,0.2
		c0.6-0.5,1-0.9,1.7-1.5c-0.2-0.2-0.3-0.4-0.5-0.6c-2.3-2.4-6.8-2.8-9.5-0.8c-3.9,2.8-3.8,8.3-1.9,11.2c1.8,2.8,4.4,3.7,7.5,3.3
		c1.8-0.2,3.3-1.1,4.5-2.6c-0.6-0.5-1.1-0.9-1.7-1.5c-0.2,0.2-0.2,0.2-0.3,0.4c-2.1,2.4-5.7,2.1-7.5-0.4c-1.1-1.5-1.3-3.2-1-5
		C81.6,101.5,82.6,99.9,84.7,99.2L84.7,99.2z M101,109.9c-0.2,0.1-0.2,0.2-0.2,0.2c-0.6,0.5-1.3,0.6-2,0.3c-0.7-0.3-0.8-0.9-0.9-1.6
		v-9c0-0.2,0,0.2,0.1-0.6h3v-2.4h-3.1v-3.9h-2.4v4.2h-2c-0.2,0-0.4,0.2-0.4,0.3c-0.1,0.6,0,0.9,0,1.7h2.5v10.1c0,1.3,0.3,2.4,1.4,3
		c1.2,0.7,3.5,0.6,4.5-0.3c0.2-0.1,0.2-0.4,0.2-0.5C101.5,111,101.2,110.5,101,109.9z"/>
</g>
</svg>
