<?xml version="1.0" encoding="utf-8"?>
<!-- Generator: Adobe Illustrator 25.0.0, SVG Export Plug-In . SVG Version: 6.00 Build 0)  -->
<svg version="1.1" id="图层_1" xmlns="http://www.w3.org/2000/svg" xmlns:xlink="http://www.w3.org/1999/xlink" x="0px" y="0px"
	 viewBox="0 0 128 128" style="enable-background:new 0 0 128 128;" xml:space="preserve">
<style type="text/css">
	.st0{fill-rule:evenodd;clip-rule:evenodd;fill:#CB6699;}
</style>
<g>
	<path class="st0" d="M24,59c0,0.4,0.1,0.7,0.2,1c0.5,1.9,1.5,3.5,2.7,4.9c1.7,2.1,3.9,3.8,6.1,5.3c1.9,1.4,3.8,2.7,5.8,4.1
		c0.3,0.2,0.6,0.5,1,0.8c-0.3,0.2-0.6,0.3-0.8,0.4c-2.5,1.3-4.9,2.7-7.2,4.5c-1.3,1-2.7,2.2-3.6,3.6c-1.5,2.3-2,4.8-0.9,7.5
		c0.3,0.8,0.8,1.4,1.5,1.9c0.2,0.2,0.5,0.3,0.7,0.4c0.7,0.2,1.4,0.3,2,0.4l1.9,0c2.1-0.2,4.1-0.9,5.8-2.1c2.7-1.9,4.6-4.4,5.4-7.7
		c0.6-2.4,0.6-4.7-0.1-7.1c-0.1-0.2-0.1-0.4-0.2-0.6c-0.1-0.2-0.2-0.4-0.3-0.7l4.4-2.5l0.1,0.1c-0.1,0.3-0.2,0.5-0.2,0.8
		c-0.5,1.9-0.9,3.8-0.7,5.8c0.1,2.1,0.7,4.1,2,5.8c1,1.4,3.4,1.5,4.4,0c0.4-0.5,0.7-1,1-1.6c0.7-1.5,1.4-3,2.1-4.5l0.1-0.3
		c0,0.7-0.1,1.3-0.1,1.9c0,1,0,1.9,0.3,2.9c0.3,0.8,0.8,1.4,1.7,1.5c0.6,0.1,1.1-0.2,1.6-0.6c0.7-0.6,1.3-1.3,1.7-2
		c1.2-2.2,2.5-4.4,3.6-6.7c1.2-2.5,2.2-5,3.3-7.5l0.2-0.4c0.3,1,0.4,2,0.8,3c0.4,1.1,0.9,2.2,1.4,3.2c0.2,0.5,0.2,0.8-0.1,1.2
		c-1.4,1.7-2.9,3.5-4.3,5.2c-0.3,0.4-0.6,0.8-0.9,1.2c-0.2,0.3-0.3,0.6-0.3,0.9c-0.1,0.6,0.3,1.1,0.9,1.3c0.6,0.1,1.2,0.2,1.7,0.1
		c2-0.1,3.8-0.8,5.3-2c2.1-1.5,2.7-3.6,2.2-6.1c-0.1-0.7-0.4-1.3-0.6-2c-0.1-0.3-0.1-0.5,0.1-0.8c1.6-2.3,3-4.8,4.3-7.4
		c0.1-0.1,0.1-0.2,0.2-0.3c0.4,2.2,1.1,4.3,2.2,6.2c-0.6,0.6-1.2,1.1-1.7,1.6c-1.1,1.2-2.1,2.6-2.7,4.2c-0.2,0.7-0.4,1.4-0.3,2.2
		c0.2,1.2,1.1,1.9,2.3,1.7c2.5-0.6,4.6-1.7,6.1-3.8c1-1.4,1.1-2.9,0.7-4.5c-0.1-0.4-0.3-0.9-0.4-1.4c0.6-0.2,1.2-0.4,1.8-0.6
		c3.2-0.7,6.3-0.6,9.4,0.5c1.8,0.7,3.2,1.8,4.1,3.5c1,2.2,0.5,4.2-1.6,5.6c-0.2,0.1-0.4,0.2-0.6,0.4c-0.1,0.1-0.2,0.3-0.1,0.4
		c0,0.1,0.2,0.2,0.3,0.2c0.7,0,1.2-0.4,1.7-0.7c1.3-0.9,2.3-2.1,2.5-3.7l0-0.1l0-1c0-0.1,0-0.1,0-0.2c-0.3-2.3-1.5-4.1-3.3-5.5
		c-2.1-1.6-4.6-2.3-7.2-2.4c-2.1-0.1-4.2,0.2-6.2,1c-0.6,0.2-1.1,0.5-1.7,0.7c-0.1-0.1-0.2-0.3-0.2-0.4c-0.6-1.2-1.3-2.4-1.5-3.7
		c-0.1-1-0.2-2,0-2.9c0.2-0.9,0.5-1.9,0.8-2.8c0.1-0.5,0-0.7-0.4-1c-0.2-0.1-0.3-0.1-0.5-0.2c-1.1-0.2-2.2-0.1-3.3,0.2
		c-0.4,0.1-0.7,0.3-0.7,0.7c0,0.2-0.1,0.5-0.2,0.7c-0.3,1-0.5,2-0.9,3c-1.1,2.4-2.4,4.7-3.8,6.9c-0.1,0.2-0.3,0.5-0.5,0.8
		c-0.5-1-1-1.9-1.1-2.9c-0.2-1.2-0.3-2.3,0-3.5c0.2-0.9,0.5-1.7,0.8-2.6c0.1-0.4,0.1-0.6-0.3-0.8c-0.2-0.1-0.4-0.2-0.6-0.2
		c-1.2-0.2-2.3-0.1-3.4,0.3c-0.3,0.1-0.5,0.3-0.6,0.7c-0.3,1.1-0.6,2.1-1,3.1c-1.8,4.1-3.6,8.1-5.4,12.1c-0.4,0.8-0.8,1.7-1.3,2.5
		c-0.1,0.2-0.3,0.4-0.4,0.6c-0.1-0.1-0.2-0.2-0.1-0.3c0-0.5-0.1-1.1,0-1.6c0.3-1.5,0.6-3,1-4.5c0.3-1.2,0.6-2.5,1-3.7
		c0.1-0.4,0.1-0.8-0.2-1.1c-0.5-0.6-1.5-0.7-2.2-0.3l-0.3,0.2l0.1-0.4c0.1-0.9,0.2-1.9-0.1-2.8c-0.3-1.2-1.1-1.8-2.3-1.8
		c-0.6,0-1.1,0.1-1.7,0.3c-2.2,0.9-3.9,2.4-5.3,4.2c-0.1,0.2-0.3,0.3-0.5,0.4c-1.8,1-3.7,2-5.5,3l-2.1,1.1c-0.6-0.5-1.1-1.1-1.6-1.5
		c-1.7-1.4-3.5-2.8-5.3-4.2c-1.6-1.2-3.1-2.5-4.2-4.2c-0.9-1.2-1.4-2.6-1.5-4.1c-0.1-1.9,0.5-3.7,1.5-5.3c1.3-2.1,3-3.8,4.8-5.3
		c2-1.6,4.1-3,6.4-4.2c3.1-1.7,6.3-3.3,9.8-4.3c3.5-1,7.1-1.6,10.8-1.2c1.5,0.2,2.9,0.5,4.2,1.2c1,0.5,1.8,1.3,2.2,2.4
		c0.4,1.1,0.4,2.2,0.1,3.3c-0.5,2.3-1.8,4.1-3.3,5.8c-2.5,2.7-5.6,4.6-9.1,5.8c-2,0.7-4.1,1.1-6.2,1.3c-1.7,0.1-3.4,0-5.1-0.6
		c-1.1-0.4-2-1-2.8-1.9c-0.1-0.2-0.3-0.3-0.6-0.2c-0.2,0.1-0.3,0.4-0.2,0.6c0.1,0.4,0.3,0.8,0.5,1.2c0.5,0.9,1.3,1.5,2.2,2.1
		c1.7,1.1,3.6,1.4,5.5,1.5c3,0.1,5.9-0.3,8.7-1.1c4.1-1.1,7.6-3.1,10.4-6.3c2.4-2.6,4-5.6,4.4-9.2c0.2-1.8,0-3.5-0.8-5.1
		c-0.9-1.7-2.3-3-4-3.9c-2.5-1.3-5.1-2-7.9-2h-2.7c-3.3,0-6.5,1-9.6,2.1c-2.4,0.9-4.7,1.9-6.9,3c-4.9,2.4-9.5,5.4-13.2,9.5
		c-1.9,2-3.4,4.2-4.4,6.9c-0.3,0.8-0.5,1.6-0.7,2.4 M41.8,80.8c-0.2,2.8-1.5,5.1-3.6,7c-1.2,1-2.5,1.8-4.1,2.1
		c-0.6,0.1-1.2,0.1-1.7-0.1c-0.8-0.3-1-1-1-1.8c0-1.2,0.4-2.3,1-3.3c0.7-1.3,1.8-2.4,3-3.3c1.8-1.5,3.9-2.8,5.9-4l0.2-0.1
		C41.7,78.5,41.9,79.6,41.8,80.8z M57.8,68.5c-0.1,0.9-0.3,1.8-0.6,2.7c-0.9,3-2.1,6-3.4,8.9c-0.2,0.5-0.6,1-0.9,1.5
		c0,0.1-0.1,0.1-0.2,0.2c-0.4,0.4-0.7,0.3-0.9-0.1c-0.2-0.6-0.3-1.1-0.5-1.7c-0.1-0.4-0.1-0.8-0.1-1.2c0-2.9,0.9-5.5,2.4-7.9
		c0.6-1,1.3-2,2.3-2.6c0.3-0.2,0.7-0.4,1-0.4C57.6,67.7,57.9,67.9,57.8,68.5z M68.8,82.4l3.9-4.6C72.9,79.5,70,82.9,68.8,82.4z
		 M81.3,79.3c-0.3,0.2-0.6,0.3-0.9,0.4c-0.3,0.1-0.3,0-0.4-0.2c0-0.2,0-0.3,0.1-0.5c0.5-1.9,1.5-3.5,3-4.8l0.1-0.1
		C83.9,76.2,83.1,78.3,81.3,79.3z"/>
</g>
</svg>
