<?xml version="1.0" encoding="utf-8"?>
<!-- Generator: Adobe Illustrator 25.0.0, SVG Export Plug-In . SVG Version: 6.00 Build 0)  -->
<svg version="1.1" id="图层_1" xmlns="http://www.w3.org/2000/svg" xmlns:xlink="http://www.w3.org/1999/xlink" x="0px" y="0px"
	 viewBox="0 0 128 128" style="enable-background:new 0 0 128 128;" xml:space="preserve">
<style type="text/css">
	.st0{fill-rule:evenodd;clip-rule:evenodd;fill:#FDB300;}
	.st1{fill-rule:evenodd;clip-rule:evenodd;fill:#EA6C00;}
	.st2{fill-rule:evenodd;clip-rule:evenodd;fill:#FDAD00;}
	.st3{fill-rule:evenodd;clip-rule:evenodd;fill:#FDD231;}
	.st4{fill-rule:evenodd;clip-rule:evenodd;fill:#FEEEB7;}
</style>
<g transform="matrix(2.242199 0 0 2.242199 -.682992 -2.821278)">
	<path class="st0" d="M12.8,5.9l16.1-1.7l16.1,1.7l12.5,16.6L28.8,55.4L0.3,22.5L12.8,5.9z"/>
	<g>
		<path class="st1" d="M11.9,22.7l17,32.7L0.3,22.7H11.9z"/>
		<path class="st1" d="M45.8,22.7l-17,32.7l28.5-32.7H45.8z"/>
	</g>
	<path class="st2" d="M11.6,22.7h33.9L28.6,55.4L11.6,22.7z"/>
	<g>
		<path class="st3" d="M28.3,4.2L12.5,5.9l-0.9,16.7L28.3,4.2z"/>
		<path class="st3" d="M28.8,4.2l15.8,1.7l0.9,16.7L28.8,4.2z"/>
	</g>
	<g>
		<path class="st2" d="M57.4,22.7L44.9,6l0.9,16.7H57.4z"/>
		<path class="st2" d="M0.3,22.7L12.8,6l-0.9,16.7H0.3z"/>
	</g>
	<path class="st4" d="M28.6,4.2L11.6,22.7h33.9L28.6,4.2z"/>
</g>
</svg>
