<?xml version="1.0" encoding="utf-8"?>
<!-- Generator: Adobe Illustrator 25.0.0, SVG Export Plug-In . SVG Version: 6.00 Build 0)  -->
<svg version="1.1" id="图层_1" xmlns="http://www.w3.org/2000/svg" xmlns:xlink="http://www.w3.org/1999/xlink" x="0px" y="0px"
	 viewBox="0 0 128 128" style="enable-background:new 0 0 128 128;" xml:space="preserve">
<style type="text/css">
	.st0{fill-rule:evenodd;clip-rule:evenodd;fill:#FDB300;}
	.st1{fill-rule:evenodd;clip-rule:evenodd;fill:#EA6C00;}
	.st2{fill-rule:evenodd;clip-rule:evenodd;fill:#FDAD00;}
	.st3{fill-rule:evenodd;clip-rule:evenodd;fill:#FDD231;}
	.st4{fill-rule:evenodd;clip-rule:evenodd;fill:#FEEEB7;}
</style>
<g transform="matrix(2.242199 0 0 2.242199 -.682992 -2.821278)">
	<path class="st0" d="M18.8,14.9l10-1.1l10,1.1l7.8,10.4L28.8,45.8L11,25.2L18.8,14.9z"/>
	<g>
		<path class="st1" d="M18.2,25.4l10.6,20.4L11,25.4H18.2z"/>
		<path class="st1" d="M39.4,25.4L28.8,45.8l17.8-20.4H39.4z"/>
	</g>
	<path class="st2" d="M18.1,25.4h21.1L28.7,45.8L18.1,25.4z"/>
	<g>
		<path class="st3" d="M28.5,13.8l-9.9,1.1l-0.6,10.4L28.5,13.8z"/>
		<path class="st3" d="M28.8,13.8l9.9,1.1l0.6,10.4L28.8,13.8z"/>
	</g>
	<g>
		<path class="st2" d="M46.6,25.4L38.8,15l0.6,10.4H46.6z"/>
		<path class="st2" d="M11,25.4L18.8,15l-0.6,10.4H11z"/>
	</g>
	<path class="st4" d="M28.7,13.8L18.1,25.4h21.1L28.7,13.8z"/>
</g>
</svg>
