<?xml version="1.0" encoding="utf-8"?>
<!-- Generator: Adobe Illustrator 25.0.0, SVG Export Plug-In . SVG Version: 6.00 Build 0)  -->
<svg version="1.1" id="Swift" xmlns="http://www.w3.org/2000/svg" xmlns:xlink="http://www.w3.org/1999/xlink" x="0px" y="0px"
	 viewBox="0 0 128 128" style="enable-background:new 0 0 128 128;" xml:space="preserve">
<style type="text/css">
	.st0{fill:#F05138;}
	.st1{fill:#FEFEFE;}
</style>
<g id="orignal">
	<path class="st0" d="M104,44.8c0-1.7-0.2-3.4-0.5-5c-0.3-1.7-0.9-3.3-1.7-4.9c-0.8-1.5-1.9-2.9-3.1-4.1c-1.2-1.2-2.7-2.2-4.2-2.9
		c-1.6-0.8-3.2-1.3-4.9-1.6C87.9,26,86,26,84.3,25.8h-42c-1.3,0-2.6,0.1-3.9,0.3c-1.3,0.2-2.5,0.5-3.7,1c-0.3,0.2-0.8,0.3-1.2,0.5
		c-1.1,0.6-2.2,1.3-3.2,2.1c-0.3,0.3-0.7,0.5-1,0.8C28,31.7,27,33,26.2,34.6c-0.8,1.5-1.4,3.2-1.7,4.9c-0.3,1.7-0.4,3.3-0.5,5v38.8
		c0,1.7,0.2,3.4,0.5,5c0.3,1.7,0.9,3.3,1.7,4.9c0.8,1.5,1.9,2.9,3.1,4.1c1.2,1.2,2.7,2.2,4.2,2.9c1.6,0.8,3.2,1.3,4.9,1.6
		c1.7,0.3,3.6,0.3,5.3,0.5h40.6c1.8,0,3.5-0.2,5.3-0.5c1.7-0.3,3.4-0.8,4.9-1.6c1.5-0.8,3-1.8,4.2-2.9c1.3-1.2,2.3-2.5,3.1-4.1
		c0.8-1.5,1.4-3.2,1.7-4.9c0.3-1.7,0.4-3.3,0.5-5L104,44.8L104,44.8z"/>
	<path class="st1" d="M77.5,84.9c-7.1,3.9-16.9,4.3-26.8,0.3C43,82,36.4,76.7,31.8,69.8c2.1,1.6,4.5,3,7,4.1
		c10.2,4.6,20.4,4.2,27.5,0l0,0C56.1,66.3,47.4,56.6,41,48.7c-1.3-1.3-2.4-2.8-3.4-4.4c7.8,6.8,20.2,15.4,24.6,17.8
		c-6.3-6.5-12.1-13.4-17.3-20.8c8.7,8.4,18.3,16,28.5,22.4c0.5,0.2,0.8,0.4,1.1,0.6c0.3-0.7,0.6-1.5,0.8-2.3
		c2.4-8.3-0.3-17.7-6.3-25.5C82.8,44.6,90.9,59.5,87.5,72c-0.1,0.3-0.2,0.6-0.3,1l0.1,0.1c6.8,8.1,4.9,16.7,4.1,15.1
		C87.7,81.3,80.9,83.5,77.5,84.9z"/>
</g>
</svg>
