<?xml version="1.0" encoding="utf-8"?>
<!-- Generator: Adobe Illustrator 25.0.0, SVG Export Plug-In . SVG Version: 6.00 Build 0)  -->
<svg version="1.1" id="图层_1" xmlns="http://www.w3.org/2000/svg" xmlns:xlink="http://www.w3.org/1999/xlink" x="0px" y="0px"
	 viewBox="0 0 128 128" style="enable-background:new 0 0 128 128;" xml:space="preserve">
<style type="text/css">
	.st0{fill:#35495E;}
	.st1{fill:none;}
	.st2{fill:#41B883;}
</style>
<g>
	<path class="st0" d="M40.8,88.6c-0.3,0-0.5,0.1-0.8,0.2c-0.2,0.1-0.4,0.4-0.4,0.7c0,0.1,0,0.1,0.1,0.3v-0.1l4.7,15.2
		c0.1,0.3,0.3,0.5,0.5,0.7c0.2,0.1,0.4,0.1,0.7,0.1c0.5,0,1.1-0.2,1.2-0.8l0,0l4.7-15.2v-0.1c0,0.1,0,0,0-0.1c0-0.4-0.2-0.6-0.4-0.7
		c-0.2-0.1-0.5-0.2-0.8-0.2c-0.4,0-0.8,0.2-0.9,0.7l0,0l-3.8,12.6l-3.8-12.5c-0.1-0.2-0.2-0.4-0.4-0.5C41.3,88.6,41,88.6,40.8,88.6
		L40.8,88.6z M78,89.4c-0.7,0-1.4,0.6-1.4,1.3c0,0.7,0.6,1.3,1.4,1.3c0.7,0,1.3-0.6,1.3-1.3C79.4,89.9,78.7,89.4,78,89.4z
		 M67.1,94.2c-2.6,0-4.7,2-4.7,4.4v2.5c0,1.4,0.5,2.6,1.5,3.4c0.9,0.8,2.2,1.2,3.7,1.2c1.1,0,2-0.2,2.6-0.6c0.3-0.1,0.6-0.4,0.7-0.6
		c0.2-0.2,0.4-0.4,0.4-0.7c0-0.3-0.1-0.5-0.3-0.7c-0.1-0.2-0.4-0.4-0.7-0.4c-0.2,0-0.4,0.1-0.6,0.2c-0.1,0.1-0.3,0.2-0.5,0.3
		c-0.4,0.2-0.8,0.4-1.6,0.4c-0.9,0-1.7-0.3-2.2-0.7s-0.8-1-0.8-1.8v-0.4h4.7c0.5,0,1,0,1.5-0.3s0.8-0.9,0.8-1.8
		C71.7,96.1,69.5,94.2,67.1,94.2L67.1,94.2z M84.7,94.2c-1.4,0-2.3,0.4-3,1.1c-0.7,0.7-0.9,1.5-0.9,2.3c0,1,0.4,1.7,1,2.2
		c0.6,0.4,1.3,0.7,2,0.9s1.4,0.4,1.8,0.7c0.4,0.3,0.7,0.6,0.7,1.2c0,0.4-0.1,0.6-0.4,0.8c-0.3,0.2-0.7,0.4-1.5,0.4
		c-0.9,0-1.5-0.2-1.8-0.4c-0.2-0.1-0.4-0.2-0.5-0.4c-0.1-0.1-0.4-0.2-0.6-0.2c-0.3,0-0.5,0.2-0.7,0.4c-0.1,0.2-0.2,0.4-0.2,0.7
		c0,0.3,0.1,0.6,0.4,0.8c0.2,0.2,0.5,0.4,0.8,0.6c0.7,0.4,1.6,0.6,2.7,0.6c1.2,0,2.2-0.3,2.9-0.9s1.1-1.4,1.1-2.4
		c0-1.1-0.4-1.9-1-2.4c-0.6-0.5-1.3-0.8-2-1c-0.7-0.2-1.4-0.4-1.8-0.7c-0.4-0.2-0.7-0.4-0.7-0.9c0-0.3,0.1-0.6,0.4-0.9
		c0.3-0.3,0.7-0.5,1.5-0.5c0.6,0,1,0.1,1.4,0.3c0.1,0.1,0.4,0.1,0.5,0.2c0.1,0.1,0.3,0.1,0.5,0.1c0.4,0,0.6-0.2,0.7-0.4
		c0.1-0.2,0.2-0.4,0.2-0.7c0-0.3-0.2-0.5-0.4-0.7c-0.2-0.1-0.5-0.3-0.8-0.4C86.3,94.3,85.5,94.2,84.7,94.2L84.7,94.2z M52.7,94.3
		c-0.6,0-1.1,0.4-1.1,0.9v6c0,2.4,2,4.6,4.6,4.6c2.5,0,4.6-2.1,4.6-4.6v-6c0-0.3-0.1-0.5-0.4-0.7s-0.4-0.2-0.7-0.2
		c-0.3,0-0.5,0.1-0.7,0.2c-0.2,0.1-0.4,0.4-0.4,0.7v6c0,1.2-1.1,2.5-2.4,2.5s-2.4-1.2-2.4-2.5v-6c0-0.3-0.1-0.5-0.4-0.7
		C53.2,94.5,53,94.3,52.7,94.3L52.7,94.3z M78,94.3c-0.3,0-0.5,0.1-0.7,0.2c-0.2,0.1-0.4,0.4-0.4,0.7v11.1c0,0.8-0.1,1.5-0.2,2
		s-0.4,0.6-1,0.6c-0.5,0-1,0.4-1,1c0,0.2,0.1,0.5,0.3,0.7c0.2,0.2,0.5,0.3,0.8,0.3c1.2,0,2-0.5,2.6-1.4c0.5-0.8,0.7-2,0.7-3.2v-11
		c0-0.3-0.1-0.5-0.4-0.7C78.6,94.4,78.3,94.3,78,94.3L78,94.3z M67.1,96.1c1.5,0,2.4,1.2,2.4,2.5c0,0.1,0,0.2,0,0.3c0,0.1,0,0,0,0.1
		c-0.1,0-0.3,0.1-0.7,0.1h-4.1v-0.5C64.7,97.2,65.7,96.1,67.1,96.1L67.1,96.1z M74,103c-0.8,0-1.4,0.7-1.4,1.4
		c0,0.7,0.6,1.4,1.4,1.4c0.7,0,1.4-0.7,1.4-1.4C75.4,103.6,74.7,103,74,103z"/>
	<g transform="matrix(.85771 0 0 .85771 9.1059 -7.6628)">
		<path class="st1" d="M17.4,28.9l36.4,0.1L64,46.9l10.6-17.9l36.1-0.1l-46.5,80.3L17.4,28.9z M109.9,29.4H92.1L64.1,77.6l-28-48.2
			h-18l46.1,78.6L109.9,29.4z M91.5,29.4L75,29.5l-11,18l-10.8-18l-16.6-0.1l27.5,47L91.5,29.4z M36.3,29.3h16.8L64,47.5l10.9-18.2
			h16.8L64.1,77.2"/>
		<path class="st0" d="M36.3,29.3h16.8L64,47.5l10.9-18.2h16.8L64.1,77.2L36.3,29.3z"/>
		<path class="st2" d="M18,29.4l18.3-0.1l27.8,47.9l27.5-47.9H110l-45.9,78.8L18,29.4z"/>
	</g>
</g>
</svg>
