<?xml version="1.0" encoding="utf-8"?>
<!-- Generator: Adobe Illustrator 25.0.0, SVG Export Plug-In . SVG Version: 6.00 Build 0)  -->
<svg version="1.1" id="图层_1" xmlns="http://www.w3.org/2000/svg" xmlns:xlink="http://www.w3.org/1999/xlink" x="0px" y="0px"
	 viewBox="0 0 128 128" style="enable-background:new 0 0 128 128;" xml:space="preserve">
<style type="text/css">
	.st0{fill:#35495E;}
	.st1{fill:none;}
	.st2{fill:#41B883;}
</style>
<g>
	<path class="st0" d="M32.2,97.7c-0.4,0-0.7,0.1-1.1,0.3c-0.3,0.2-0.6,0.6-0.6,1c0,0.1,0,0.2,0.1,0.4l0-0.1l6.4,20.8
		c0.1,0.4,0.4,0.7,0.7,0.9s0.6,0.2,1,0.2c0.7,0,1.5-0.3,1.7-1.1v0l6.4-20.9v-0.1c0,0.1,0,0,0-0.2c0-0.5-0.3-0.8-0.6-1
		c-0.3-0.2-0.7-0.3-1.1-0.3c-0.5,0-1.1,0.3-1.2,0.9l0,0l-5.2,17.3l-5.2-17.2c-0.1-0.3-0.3-0.6-0.5-0.7S32.4,97.7,32.2,97.7
		L32.2,97.7z M83.2,98.8c-1,0-1.9,0.8-1.9,1.8c0,1,0.8,1.8,1.9,1.8c1,0,1.8-0.8,1.8-1.8C85.1,99.6,84.2,98.8,83.2,98.8z M68.2,105.4
		c-3.5,0-6.4,2.8-6.4,6.1v3.4c0,1.9,0.7,3.5,2,4.6c1.3,1.1,3,1.7,5.1,1.7c1.5,0,2.7-0.3,3.6-0.8c0.4-0.2,0.8-0.5,1-0.8
		c0.3-0.3,0.5-0.6,0.5-1c0-0.4-0.1-0.7-0.4-0.9c-0.2-0.3-0.6-0.5-1-0.5c-0.3,0-0.6,0.1-0.8,0.3c-0.2,0.1-0.4,0.3-0.7,0.4
		c-0.5,0.3-1.1,0.5-2.2,0.5c-1.3,0-2.3-0.4-3-1c-0.7-0.6-1.1-1.4-1.1-2.5v-0.6h6.4c0.7,0,1.4,0,2.1-0.4c0.7-0.4,1.1-1.3,1.1-2.5
		C74.5,108,71.5,105.4,68.2,105.4L68.2,105.4z M92.4,105.4c-1.9,0-3.2,0.6-4.1,1.5c-0.9,0.9-1.3,2.1-1.3,3.2c0,1.4,0.6,2.4,1.4,3
		c0.8,0.6,1.8,1,2.8,1.3c1,0.3,1.9,0.5,2.5,0.9c0.6,0.4,0.9,0.8,0.9,1.7c0,0.5-0.1,0.8-0.5,1.1c-0.4,0.3-1,0.5-2.1,0.5
		c-1.3,0-2-0.3-2.5-0.6c-0.3-0.2-0.5-0.3-0.7-0.5s-0.5-0.3-0.8-0.3c-0.4,0-0.7,0.3-0.9,0.5c-0.2,0.3-0.3,0.6-0.3,0.9
		c0,0.4,0.2,0.8,0.5,1.1c0.3,0.3,0.7,0.6,1.1,0.8c0.9,0.5,2.2,0.8,3.7,0.8c1.6,0,3-0.4,4-1.2c1-0.8,1.5-1.9,1.5-3.3
		c0-1.5-0.5-2.6-1.4-3.3c-0.8-0.7-1.8-1.1-2.8-1.4c-1-0.3-1.9-0.5-2.5-0.9c-0.6-0.3-0.9-0.6-0.9-1.3c0-0.4,0.2-0.8,0.5-1.2
		c0.4-0.4,1-0.7,2-0.7c0.8,0,1.4,0.2,1.9,0.4c0.2,0.1,0.5,0.2,0.7,0.3c0.2,0.1,0.4,0.2,0.7,0.2c0.5,0,0.8-0.3,1-0.6
		c0.2-0.3,0.3-0.6,0.3-0.9c0-0.4-0.3-0.7-0.6-0.9s-0.7-0.4-1.1-0.6C94.6,105.6,93.5,105.4,92.4,105.4L92.4,105.4z M48.5,105.6
		c-0.8,0-1.5,0.5-1.5,1.3v8.2c0,3.3,2.8,6.3,6.3,6.3c3.4,0,6.3-2.9,6.3-6.3v-8.2c0-0.4-0.2-0.7-0.5-0.9c-0.3-0.2-0.6-0.3-1-0.3
		s-0.7,0.1-1,0.3c-0.3,0.2-0.5,0.5-0.5,0.9v8.2c0,1.7-1.5,3.4-3.3,3.4c-1.8,0-3.3-1.7-3.3-3.4v-8.2c0-0.4-0.2-0.7-0.5-0.9
		S48.9,105.6,48.5,105.6L48.5,105.6z M83.2,105.6c-0.4,0-0.7,0.1-1,0.3c-0.3,0.2-0.5,0.6-0.5,0.9V122c0,1.1-0.1,2.1-0.3,2.7
		c-0.2,0.6-0.5,0.8-1.4,0.8c-0.7,0-1.4,0.6-1.4,1.4c0,0.3,0.1,0.7,0.4,1c0.3,0.3,0.7,0.4,1.1,0.4c1.6,0,2.8-0.7,3.5-1.9
		c0.7-1.1,1-2.7,1-4.4v-15.1c0-0.4-0.2-0.7-0.5-0.9C84,105.7,83.6,105.6,83.2,105.6L83.2,105.6z M68.2,108.1c2,0,3.3,1.7,3.3,3.4
		c0,0.2,0,0.3,0,0.4c0,0.1,0,0,0,0.1c-0.1,0-0.4,0.1-1,0.1h-5.6v-0.7C64.9,109.6,66.3,108.1,68.2,108.1L68.2,108.1z M77.7,117.5
		c-1.1,0-1.9,0.9-1.9,1.9c0,1,0.8,1.9,1.9,1.9c1,0,1.9-0.9,1.9-1.9C79.6,118.3,78.7,117.5,77.7,117.5z"/>
	<g transform="matrix(.85771 0 0 .85771 9.1059 -7.6628)">
		<path class="st1" d="M0,8.6l49.9,0.2L64,33.3L78.5,8.8L128,8.6L64.2,118.8L0,8.6z M127,9.3l-24.4,0L64.1,75.4L25.7,9.3l-24.7,0
			l63.2,107.9L127,9.3z M101.8,9.3L79.1,9.4L64,34.1L49.2,9.4L26.4,9.3l37.7,64.5L101.8,9.3z M26,9.1l23,0l15,25l15-25l23,0
			L64.2,74.8"/>
		<path class="st0" d="M26,9.1l23,0l15,25l15-25l23,0L64.2,74.8L26,9.1z"/>
		<path class="st2" d="M0.9,9.3L26,9.1l38.2,65.7L102,9.1l25.1,0l-63,108.1L0.9,9.3z"/>
	</g>
</g>
</svg>
