<?xml version="1.0" encoding="utf-8"?>
<!-- Generator: Adobe Illustrator 25.0.0, SVG Export Plug-In . SVG Version: 6.00 Build 0)  -->
<svg version="1.1" id="angularjs" xmlns="http://www.w3.org/2000/svg" xmlns:xlink="http://www.w3.org/1999/xlink" x="0px" y="0px"
	 viewBox="0 0 128 128" style="enable-background:new 0 0 128 128;" xml:space="preserve">
<style type="text/css">
	.st0{fill:#8ED6FB;}
	.st1{fill:#1C78C0;}
</style>
<g id="original-wordmark">
	<path class="st0" d="M41.5,69.4L33.4,74v-3.6l5.1-2.8L41.5,69.4L41.5,69.4z M42.1,68.9v-9.6l-3,1.7v6.2L42.1,68.9L42.1,68.9z
		 M24.6,69.4l8.1,4.6v-3.6l-5.1-2.8L24.6,69.4z M24,68.9v-9.6l3,1.7v6.2L24,68.9z M24.4,58.7l8.3-4.7v3.5l-5.4,2.9h0L24.4,58.7z
		 M41.8,58.7L33.4,54v3.5l5.3,2.9l0.1,0L41.8,58.7L41.8,58.7z"/>
	<path class="st1" d="M32.7,69.6l-5-2.8v-5.5l5,2.9L32.7,69.6z M33.4,69.6l5-2.8v-5.5l-5,2.9V69.6z M28,60.8l5-2.8l5,2.8l-5,2.9
		L28,60.8z"/>
	<path class="st1" d="M53.8,67.7H56l2.2-7.5h-2.1l-1.3,5.3l-1.4-5.3h-1.9l-1.4,5.3l-1.3-5.3h-2.1l2.2,7.5H51l1.4-4.8L53.8,67.7z
		 M58.4,64c-0.1,2.1,1.5,3.8,3.5,3.9c0.1,0,0.3,0,0.4,0c1.3,0.1,2.5-0.6,3.1-1.6l-1.3-1c-0.4,0.6-1.1,0.9-1.8,0.9
		c-1,0.1-1.9-0.7-1.9-1.7c0,0,0,0,0,0h5.3c0-0.1,0-0.3,0-0.4c0-2.4-1.3-4-3.6-4C59.8,60,58.3,61.7,58.4,64L58.4,64z M60.4,63.2
		c0-0.9,0.7-1.5,1.6-1.5c0.8,0,1.6,0.6,1.6,1.5c0,0,0,0,0,0.1L60.4,63.2z M66.4,67.7h1.9v-0.8c0.6,0.6,1.4,1,2.2,1
		c2.1,0,3.7-1.6,3.7-3.9S72.7,60,70.6,60c-0.8,0-1.7,0.3-2.2,1v-3.6h-2L66.4,67.7L66.4,67.7L66.4,67.7z M68.3,64
		c0-1.4,0.8-2.2,1.9-2.2c1.1,0,1.9,0.9,1.9,2.2c0,1.3-0.8,2.2-1.9,2.2c-1.1,0-2-1-1.9-2.1C68.3,64.1,68.3,64,68.3,64z M74.9,70.4h2
		v-3.4c0.6,0.6,1.4,1,2.2,1c2.1,0,3.5-1.6,3.5-3.9c0-2.3-1.5-3.9-3.7-3.9c-0.8,0-1.7,0.3-2.2,1v-0.8h-1.9L74.9,70.4L74.9,70.4z
		 M76.8,63.9c-0.1-1.1,0.7-2.1,1.8-2.1c0,0,0.1,0,0.1,0c1.1,0,1.9,0.8,1.9,2.2s-0.8,2.2-1.9,2.2C77.6,66.1,76.8,65.3,76.8,63.9z
		 M83,65.4c0,1.6,1.3,2.5,2.8,2.5c0.7,0.1,1.3-0.2,1.8-0.7l0.1,0.5h1.7V63c0-1.7-0.7-2.9-3.1-2.9c-1,0-2.1,0.3-2.9,0.9l0.7,1.3
		c0.6-0.3,1.3-0.5,2-0.5c0.9,0,1.3,0.4,1.3,1.1v0.5c-0.5-0.3-1-0.4-1.6-0.4C84.1,62.9,83,63.9,83,65.4L83,65.4z M85,65.3
		c0-0.6,0.5-1,1.3-1s1.3,0.4,1.3,1s-0.6,1.1-1.3,1.1S84.9,66,85,65.3L85,65.3z M94.2,66.1c-1.2,0-2.1-1.1-2.1-2.3c0-1.1,0.9-2,2-2.1
		c0.7,0,1.3,0.3,1.7,0.7l0.6-1.7C95.8,60.3,95,60,94.1,60c-2.1-0.1-3.9,1.6-4,3.7c0,0.1,0,0.1,0,0.2c-0.1,2.1,1.6,3.8,3.7,3.9
		c0.1,0,0.2,0,0.3,0c0.9,0,1.7-0.3,2.4-0.8L96,65.5C95.5,65.9,94.9,66.1,94.2,66.1L94.2,66.1z M97.2,67.7h2v-3.9l2.5,3.9h2.3
		l-2.8-4.1l2.7-3.4h-2.2l-2.4,3.1v-6h-2L97.2,67.7L97.2,67.7z"/>
</g>
</svg>
